<svg width="492" height="403" viewBox="0 0 492 403" fill="none" xmlns="http://www.w3.org/2000/svg">
<rect x="0.627625" y="0.5" width="490.786" height="402" rx="15.5" fill="white"/>
<rect x="0.627625" y="0.5" width="490.786" height="402" rx="15.5" stroke="url(#paint0_linear_38_178153)"/>
<rect x="38.2945" y="12.2741" width="415.452" height="276.452" rx="16.1716" fill="url(#paint1_radial_38_178153)" fill-opacity="0.5"/>
<rect x="38.2945" y="12.2741" width="415.452" height="276.452" rx="16.1716" stroke="url(#paint2_radial_38_178153)" stroke-width="0.548191"/>
<rect x="38.2945" y="12.2741" width="415.452" height="276.452" rx="16.1716" stroke="url(#paint3_radial_38_178153)" stroke-width="0.548191"/>
<rect x="38.2945" y="12.2741" width="415.452" height="276.452" rx="16.1716" stroke="url(#paint4_linear_38_178153)" stroke-width="0.548191"/>
<path d="M65.708 80.7414C66.7518 80.6186 67.5411 80.2765 68.0762 79.7151C68.62 79.1538 68.8919 78.4302 68.8919 77.5443C68.8919 77.1671 68.8217 76.8382 68.6814 76.5576C68.5411 76.2769 68.3481 76.0313 68.1025 75.8208C67.8657 75.6103 67.5806 75.4305 67.2473 75.2814C66.914 75.1235 66.5544 74.9788 66.1685 74.8472L65.708 80.7414ZM65.0633 66.2559C64.5371 66.3086 64.0854 66.4182 63.7082 66.5849C63.331 66.7427 63.0197 66.9401 62.7741 67.1769C62.5285 67.405 62.3487 67.6637 62.2347 67.9531C62.1206 68.2426 62.0636 68.5496 62.0636 68.8741C62.0636 69.2425 62.1294 69.567 62.261 69.8477C62.3925 70.1284 62.5723 70.3783 62.8004 70.5976C63.0372 70.8081 63.3135 70.9967 63.6293 71.1634C63.945 71.3212 64.2871 71.4703 64.6555 71.6107L65.0633 66.2559ZM66.379 72.1633C67.0105 72.3562 67.6332 72.5711 68.2472 72.8079C68.87 73.036 69.4269 73.3342 69.9181 73.7026C70.4093 74.0622 70.804 74.5139 71.1022 75.0577C71.4092 75.6015 71.5627 76.2813 71.5627 77.097C71.5627 77.8951 71.4267 78.6495 71.1548 79.3599C70.8917 80.0616 70.5014 80.6843 69.9839 81.2281C69.4664 81.7632 68.8305 82.2017 68.0762 82.5438C67.3306 82.8771 66.4799 83.0745 65.5238 83.1359L65.3659 85.2409C65.3572 85.4251 65.2826 85.5917 65.1423 85.7409C65.0019 85.8987 64.8221 85.9777 64.6028 85.9777H63.5503L63.774 83.0964C62.739 82.9736 61.7742 82.7017 60.8795 82.2807C59.9937 81.8509 59.235 81.3159 58.6034 80.6756L59.4586 79.3731C59.5376 79.259 59.6384 79.1669 59.7612 79.0968C59.8928 79.0178 60.0331 78.9784 60.1822 78.9784C60.3664 78.9784 60.5638 79.0529 60.7743 79.202C60.9936 79.3511 61.2479 79.5266 61.5374 79.7283C61.8268 79.9213 62.1689 80.1142 62.5636 80.3072C62.9583 80.4914 63.4231 80.6273 63.9582 80.715L64.445 74.3341C63.831 74.1499 63.2214 73.9438 62.6162 73.7157C62.0198 73.4789 61.4803 73.1675 60.9979 72.7816C60.5243 72.3957 60.1384 71.9133 59.8402 71.3344C59.5507 70.7555 59.406 70.0275 59.406 69.1504C59.406 68.4926 59.5332 67.8523 59.7875 67.2295C60.0507 66.6068 60.4278 66.0542 60.919 65.5718C61.4189 65.0806 62.0329 64.6815 62.7609 64.3746C63.4889 64.0588 64.3222 63.879 65.2607 63.8351L65.3922 62.0721C65.401 61.8792 65.4756 61.7081 65.6159 61.559C65.7562 61.4099 65.936 61.3354 66.1553 61.3354H67.2078L67.0105 63.9141C67.9315 64.0456 68.7296 64.3 69.405 64.6772C70.0804 65.0455 70.668 65.4753 71.168 65.9665L70.4838 67.019C70.2909 67.326 70.0541 67.4795 69.7734 67.4795C69.6418 67.4795 69.4839 67.4313 69.2997 67.3348C69.1243 67.2383 68.9138 67.1243 68.6682 66.9927C68.4314 66.8611 68.1595 66.7296 67.8525 66.598C67.5455 66.4665 67.2035 66.3656 66.8263 66.2954L66.379 72.1633ZM74.0776 69.2162C74.2092 68.3215 74.4548 67.5365 74.8144 66.8611C75.1828 66.1858 75.6433 65.6244 76.1959 65.1771C76.7484 64.721 77.3799 64.3789 78.0904 64.1509C78.8096 63.9141 79.5859 63.7957 80.4191 63.7957C81.2611 63.7957 82.0242 63.9185 82.7084 64.164C83.4013 64.4009 83.9933 64.7342 84.4845 65.1639C84.9845 65.5937 85.366 66.1068 85.6291 66.7033C85.901 67.2997 86.037 67.9531 86.037 68.6636C86.037 69.2688 85.9624 69.8038 85.8133 70.2687C85.673 70.7248 85.4669 71.1283 85.195 71.4791C84.9318 71.83 84.6073 72.1238 84.2214 72.3606C83.8355 72.5974 83.4013 72.7948 82.9189 72.9527C84.0942 73.2947 84.9757 73.8429 85.5633 74.5972C86.151 75.3428 86.4448 76.2813 86.4448 77.4127C86.4448 78.3249 86.2738 79.1362 85.9317 79.8467C85.5897 80.5572 85.1248 81.158 84.5371 81.6492C83.9582 82.1403 83.2785 82.5175 82.4979 82.7806C81.726 83.035 80.9059 83.1622 80.0376 83.1622C79.064 83.1622 78.222 83.0481 77.5115 82.8201C76.8011 82.5833 76.1871 82.25 75.6696 81.8202C75.1609 81.3816 74.7355 80.8554 74.3934 80.2414C74.0513 79.6274 73.7619 78.9389 73.5251 78.1758L74.7486 77.6627C75.0732 77.5224 75.3801 77.4829 75.6696 77.5443C75.9678 77.6057 76.1827 77.768 76.3143 78.0311C76.4546 78.3118 76.6125 78.6144 76.7879 78.9389C76.9633 79.2547 77.187 79.5485 77.4589 79.8204C77.7396 80.0835 78.0816 80.3072 78.4851 80.4914C78.8973 80.6668 79.4017 80.7545 79.9981 80.7545C80.6033 80.7545 81.1296 80.658 81.5769 80.4651C82.033 80.2633 82.4102 80.009 82.7084 79.702C83.0154 79.3862 83.2434 79.0354 83.3925 78.6495C83.5416 78.2635 83.6162 77.882 83.6162 77.5048C83.6162 77.0312 83.5592 76.597 83.4451 76.2023C83.3311 75.7989 83.1075 75.4568 82.7742 75.1761C82.4496 74.8954 81.9848 74.6762 81.3796 74.5183C80.7831 74.3516 79.9981 74.2683 79.0245 74.2683V72.229C79.8227 72.2203 80.4937 72.1413 81.0375 71.9922C81.5901 71.8343 82.0286 71.6238 82.3531 71.3607C82.6864 71.0888 82.9233 70.7643 83.0636 70.3871C83.2127 70.01 83.2873 69.5977 83.2873 69.1504C83.2873 68.668 83.2127 68.2426 83.0636 67.8742C82.9145 67.5058 82.704 67.1988 82.4321 66.9532C82.1689 66.6989 81.8532 66.5103 81.4848 66.3875C81.1164 66.2647 80.7086 66.2033 80.2612 66.2033C79.8315 66.2033 79.4324 66.2647 79.064 66.3875C78.7044 66.5103 78.3798 66.6813 78.0904 66.9006C77.8097 67.1199 77.5729 67.383 77.3799 67.69C77.187 67.9882 77.0466 68.3171 76.9589 68.6768C76.8361 69.0364 76.6695 69.2776 76.459 69.4004C76.2573 69.5232 75.959 69.5495 75.5643 69.4793L74.0776 69.2162ZM90.5123 82.9385C90.2579 82.9385 90.0255 82.8946 89.815 82.8069C89.6045 82.7105 89.4203 82.5833 89.2624 82.4254C89.1133 82.2587 88.9949 82.0658 88.9072 81.8465C88.8282 81.6272 88.7888 81.386 88.7888 81.1229C88.7888 80.8948 88.8282 80.68 88.9072 80.4782C88.9949 80.2765 89.1133 80.1011 89.2624 79.952C89.4203 79.8028 89.6045 79.6888 89.815 79.6099C90.0343 79.5222 90.2711 79.4783 90.5254 79.4783C90.8237 79.4783 91.0868 79.5353 91.3148 79.6494C91.5429 79.7546 91.7315 79.9037 91.8806 80.0967C92.0384 80.2809 92.1525 80.5001 92.2226 80.7545C92.3016 81.0001 92.341 81.2632 92.341 81.5439C92.341 81.9474 92.2797 82.3728 92.1569 82.8201C92.0428 83.2674 91.8674 83.7104 91.6306 84.1489C91.4025 84.5962 91.1175 85.0304 90.7754 85.4514C90.4421 85.8724 90.0606 86.2584 89.6308 86.6092L89.144 86.1619C89.0738 86.0917 89.0212 86.0259 88.9861 85.9645C88.9598 85.9031 88.9466 85.8242 88.9466 85.7277C88.9466 85.5786 89.0212 85.4383 89.1703 85.3067C89.258 85.2102 89.372 85.083 89.5124 84.9251C89.6527 84.7673 89.7931 84.5875 89.9334 84.3857C90.0737 84.184 90.2009 83.9603 90.3149 83.7147C90.4377 83.4692 90.5254 83.2104 90.5781 82.9385H90.5123ZM102.813 75.9524V69.032C102.813 68.4794 102.852 67.8742 102.931 67.2164L96.5635 75.9524H102.813ZM107.891 75.9524V77.5838C107.891 77.7416 107.839 77.8776 107.733 77.9916C107.637 78.1056 107.488 78.1627 107.286 78.1627H105.273V82.9517H102.813V78.1627H94.6163C94.4146 78.1627 94.2392 78.1056 94.0901 77.9916C93.9497 77.8688 93.8576 77.7197 93.8138 77.5443L93.5243 76.0971L102.616 63.993H105.273V75.9524H107.891ZM115.958 80.9255C116.528 80.9255 117.037 80.8466 117.485 80.6887C117.932 80.5221 118.305 80.294 118.603 80.0046C118.91 79.7064 119.142 79.3555 119.3 78.9521C119.458 78.5486 119.537 78.11 119.537 77.6364C119.537 77.0575 119.445 76.5576 119.261 76.1365C119.085 75.7155 118.835 75.3691 118.511 75.0972C118.195 74.8165 117.818 74.6104 117.379 74.4788C116.941 74.3385 116.467 74.2683 115.958 74.2683C115.45 74.2683 114.976 74.3385 114.537 74.4788C114.099 74.6104 113.717 74.8165 113.393 75.0972C113.077 75.3691 112.827 75.7155 112.643 76.1365C112.467 76.5576 112.38 77.0575 112.38 77.6364C112.38 78.11 112.459 78.5486 112.617 78.9521C112.774 79.3555 113.003 79.7064 113.301 80.0046C113.608 80.294 113.985 80.5221 114.432 80.6887C114.88 80.8466 115.388 80.9255 115.958 80.9255ZM115.958 65.9665C115.441 65.9665 114.985 66.0454 114.59 66.2033C114.204 66.3612 113.884 66.5717 113.63 66.8348C113.375 67.098 113.182 67.4093 113.051 67.769C112.928 68.1198 112.867 68.4926 112.867 68.8873C112.867 69.282 112.919 69.6679 113.024 70.045C113.138 70.4222 113.314 70.7599 113.551 71.0581C113.796 71.3475 114.116 71.58 114.511 71.7554C114.906 71.9308 115.388 72.0185 115.958 72.0185C116.528 72.0185 117.011 71.9308 117.406 71.7554C117.8 71.58 118.116 71.3475 118.353 71.0581C118.598 70.7599 118.774 70.4222 118.879 70.045C118.993 69.6679 119.05 69.282 119.05 68.8873C119.05 68.4926 118.984 68.1198 118.853 67.769C118.73 67.4093 118.537 67.098 118.274 66.8348C118.02 66.5717 117.699 66.3612 117.313 66.2033C116.928 66.0454 116.476 65.9665 115.958 65.9665ZM118.945 73.0711C120.111 73.4307 120.984 74.0008 121.563 74.7814C122.151 75.562 122.445 76.5312 122.445 77.689C122.445 78.5223 122.287 79.2766 121.971 79.952C121.655 80.6273 121.212 81.2018 120.642 81.6755C120.072 82.1491 119.388 82.5175 118.59 82.7806C117.8 83.035 116.923 83.1622 115.958 83.1622C114.994 83.1622 114.112 83.035 113.314 82.7806C112.524 82.5175 111.845 82.1491 111.275 81.6755C110.704 81.2018 110.262 80.6273 109.946 79.952C109.63 79.2766 109.472 78.5223 109.472 77.689C109.472 76.5312 109.762 75.562 110.34 74.7814C110.928 74.0008 111.805 73.4307 112.972 73.0711C112.025 72.6939 111.31 72.1457 110.827 71.4265C110.354 70.7073 110.117 69.8433 110.117 68.8346C110.117 68.1242 110.257 67.462 110.538 66.848C110.819 66.234 111.213 65.7034 111.722 65.256C112.239 64.7999 112.858 64.4447 113.577 64.1904C114.296 63.9272 115.09 63.7957 115.958 63.7957C116.827 63.7957 117.616 63.9272 118.327 64.1904C119.046 64.4447 119.66 64.7999 120.168 65.256C120.686 65.7034 121.085 66.234 121.366 66.848C121.655 67.462 121.8 68.1242 121.8 68.8346C121.8 69.8433 121.559 70.7073 121.076 71.4265C120.603 72.1457 119.892 72.6939 118.945 73.0711ZM128.393 71.0055C128.849 70.909 129.284 70.8388 129.696 70.795C130.117 70.7511 130.52 70.7292 130.906 70.7292C131.897 70.7292 132.77 70.8783 133.524 71.1765C134.288 71.466 134.923 71.8694 135.432 72.3869C135.95 72.9044 136.336 73.514 136.59 74.2157C136.853 74.9086 136.985 75.6629 136.985 76.4786C136.985 77.4873 136.809 78.4039 136.458 79.2283C136.108 80.0528 135.621 80.7589 134.998 81.3466C134.375 81.9254 133.638 82.3728 132.788 82.6885C131.946 83.0043 131.033 83.1622 130.051 83.1622C129.472 83.1622 128.92 83.1052 128.393 82.9911C127.876 82.8771 127.389 82.7236 126.933 82.5306C126.477 82.3289 126.056 82.1009 125.67 81.8465C125.284 81.5834 124.938 81.3115 124.631 81.0308L125.499 79.8204C125.683 79.5573 125.929 79.4257 126.236 79.4257C126.429 79.4257 126.639 79.4959 126.867 79.6362C127.095 79.7765 127.358 79.93 127.657 80.0967C127.964 80.2546 128.323 80.4037 128.735 80.544C129.148 80.6843 129.639 80.7545 130.209 80.7545C130.832 80.7545 131.389 80.6536 131.88 80.4519C132.371 80.2502 132.783 79.9695 133.117 79.6099C133.459 79.2415 133.717 78.8029 133.893 78.2942C134.068 77.7855 134.156 77.2285 134.156 76.6233C134.156 76.0708 134.073 75.5752 133.906 75.1366C133.748 74.6981 133.507 74.3253 133.182 74.0183C132.867 73.7113 132.468 73.4789 131.985 73.321C131.503 73.1544 130.946 73.0711 130.314 73.0711C129.849 73.0711 129.371 73.1105 128.88 73.1895C128.398 73.2684 127.907 73.3912 127.407 73.5579L125.644 73.0579L127.196 64.0062H136.366V65.2297C136.366 65.6332 136.239 65.9621 135.985 66.2165C135.73 66.4708 135.305 66.598 134.709 66.598H129.156L128.393 71.0055ZM141.315 82.9385C141.061 82.9385 140.828 82.8946 140.618 82.8069C140.407 82.7105 140.223 82.5833 140.065 82.4254C139.916 82.2587 139.798 82.0658 139.71 81.8465C139.631 81.6272 139.592 81.386 139.592 81.1229C139.592 80.8948 139.631 80.68 139.71 80.4782C139.798 80.2765 139.916 80.1011 140.065 79.952C140.223 79.8028 140.407 79.6888 140.618 79.6099C140.837 79.5222 141.074 79.4783 141.328 79.4783C141.627 79.4783 141.89 79.5353 142.118 79.6494C142.346 79.7546 142.534 79.9037 142.684 80.0967C142.841 80.2809 142.955 80.5001 143.026 80.7545C143.105 81.0001 143.144 81.2632 143.144 81.5439C143.144 81.9474 143.083 82.3728 142.96 82.8201C142.846 83.2674 142.67 83.7104 142.434 84.1489C142.205 84.5962 141.92 85.0304 141.578 85.4514C141.245 85.8724 140.864 86.2584 140.434 86.6092L139.947 86.1619C139.877 86.0917 139.824 86.0259 139.789 85.9645C139.763 85.9031 139.75 85.8242 139.75 85.7277C139.75 85.5786 139.824 85.4383 139.973 85.3067C140.061 85.2102 140.175 85.083 140.315 84.9251C140.456 84.7673 140.596 84.5875 140.736 84.3857C140.877 84.184 141.004 83.9603 141.118 83.7147C141.241 83.4692 141.328 83.2104 141.381 82.9385H141.315ZM158.668 73.4789C158.668 75.1366 158.488 76.5707 158.129 77.7811C157.778 78.9915 157.291 79.9958 156.668 80.794C156.045 81.5921 155.313 82.1842 154.471 82.5701C153.629 82.956 152.721 83.149 151.748 83.149C150.774 83.149 149.866 82.956 149.024 82.5701C148.182 82.1842 147.45 81.5921 146.827 80.794C146.213 79.9958 145.731 78.9915 145.38 77.7811C145.029 76.5707 144.854 75.1366 144.854 73.4789C144.854 71.8212 145.029 70.3871 145.38 69.1767C145.731 67.9575 146.213 66.9532 146.827 66.1638C147.45 65.3657 148.182 64.7736 149.024 64.3877C149.866 63.993 150.774 63.7957 151.748 63.7957C152.721 63.7957 153.629 63.993 154.471 64.3877C155.313 64.7736 156.045 65.3657 156.668 66.1638C157.291 66.9532 157.778 67.9575 158.129 69.1767C158.488 70.3871 158.668 71.8212 158.668 73.4789ZM155.747 73.4789C155.747 72.0755 155.633 70.909 155.405 69.9793C155.186 69.0408 154.892 68.2908 154.524 67.7295C154.155 67.1681 153.73 66.7691 153.247 66.5322C152.765 66.2954 152.265 66.177 151.748 66.177C151.221 66.177 150.717 66.2954 150.235 66.5322C149.761 66.7691 149.34 67.1681 148.972 67.7295C148.603 68.2908 148.309 69.0408 148.09 69.9793C147.871 70.909 147.761 72.0755 147.761 73.4789C147.761 74.8823 147.871 76.0532 148.09 76.9917C148.309 77.9215 148.603 78.667 148.972 79.2283C149.34 79.7897 149.761 80.1888 150.235 80.4256C150.717 80.6624 151.221 80.7808 151.748 80.7808C152.265 80.7808 152.765 80.6624 153.247 80.4256C153.73 80.1888 154.155 79.7897 154.524 79.2283C154.892 78.667 155.186 77.9215 155.405 76.9917C155.633 76.0532 155.747 74.8823 155.747 73.4789ZM173.669 73.4789C173.669 75.1366 173.489 76.5707 173.129 77.7811C172.778 78.9915 172.291 79.9958 171.669 80.794C171.046 81.5921 170.314 82.1842 169.472 82.5701C168.63 82.956 167.722 83.149 166.748 83.149C165.775 83.149 164.867 82.956 164.025 82.5701C163.183 82.1842 162.45 81.5921 161.828 80.794C161.214 79.9958 160.731 78.9915 160.38 77.7811C160.03 76.5707 159.854 75.1366 159.854 73.4789C159.854 71.8212 160.03 70.3871 160.38 69.1767C160.731 67.9575 161.214 66.9532 161.828 66.1638C162.45 65.3657 163.183 64.7736 164.025 64.3877C164.867 63.993 165.775 63.7957 166.748 63.7957C167.722 63.7957 168.63 63.993 169.472 64.3877C170.314 64.7736 171.046 65.3657 171.669 66.1638C172.291 66.9532 172.778 67.9575 173.129 69.1767C173.489 70.3871 173.669 71.8212 173.669 73.4789ZM170.748 73.4789C170.748 72.0755 170.634 70.909 170.406 69.9793C170.186 69.0408 169.893 68.2908 169.524 67.7295C169.156 67.1681 168.73 66.7691 168.248 66.5322C167.766 66.2954 167.266 66.177 166.748 66.177C166.222 66.177 165.718 66.2954 165.235 66.5322C164.762 66.7691 164.34 67.1681 163.972 67.7295C163.604 68.2908 163.31 69.0408 163.091 69.9793C162.871 70.909 162.762 72.0755 162.762 73.4789C162.762 74.8823 162.871 76.0532 163.091 76.9917C163.31 77.9215 163.604 78.667 163.972 79.2283C164.34 79.7897 164.762 80.1888 165.235 80.4256C165.718 80.6624 166.222 80.7808 166.748 80.7808C167.266 80.7808 167.766 80.6624 168.248 80.4256C168.73 80.1888 169.156 79.7897 169.524 79.2283C169.893 78.667 170.186 77.9215 170.406 76.9917C170.634 76.0532 170.748 74.8823 170.748 73.4789ZM188.669 73.4789C188.669 75.1366 188.489 76.5707 188.13 77.7811C187.779 78.9915 187.292 79.9958 186.669 80.794C186.047 81.5921 185.314 82.1842 184.472 82.5701C183.63 82.956 182.722 83.149 181.749 83.149C180.775 83.149 179.867 82.956 179.025 82.5701C178.183 82.1842 177.451 81.5921 176.828 80.794C176.214 79.9958 175.732 78.9915 175.381 77.7811C175.03 76.5707 174.855 75.1366 174.855 73.4789C174.855 71.8212 175.03 70.3871 175.381 69.1767C175.732 67.9575 176.214 66.9532 176.828 66.1638C177.451 65.3657 178.183 64.7736 179.025 64.3877C179.867 63.993 180.775 63.7957 181.749 63.7957C182.722 63.7957 183.63 63.993 184.472 64.3877C185.314 64.7736 186.047 65.3657 186.669 66.1638C187.292 66.9532 187.779 67.9575 188.13 69.1767C188.489 70.3871 188.669 71.8212 188.669 73.4789ZM185.748 73.4789C185.748 72.0755 185.634 70.909 185.406 69.9793C185.187 69.0408 184.893 68.2908 184.525 67.7295C184.156 67.1681 183.731 66.7691 183.249 66.5322C182.766 66.2954 182.266 66.177 181.749 66.177C181.222 66.177 180.718 66.2954 180.236 66.5322C179.762 66.7691 179.341 67.1681 178.973 67.7295C178.604 68.2908 178.31 69.0408 178.091 69.9793C177.872 70.909 177.762 72.0755 177.762 73.4789C177.762 74.8823 177.872 76.0532 178.091 76.9917C178.31 77.9215 178.604 78.667 178.973 79.2283C179.341 79.7897 179.762 80.1888 180.236 80.4256C180.718 80.6624 181.222 80.7808 181.749 80.7808C182.266 80.7808 182.766 80.6624 183.249 80.4256C183.731 80.1888 184.156 79.7897 184.525 79.2283C184.893 78.667 185.187 77.9215 185.406 76.9917C185.634 76.0532 185.748 74.8823 185.748 73.4789Z" fill="#141414"/>
<rect x="198.296" y="60.9697" width="49.9277" height="23.9638" rx="11.9819" fill="#295735"/>
<path d="M215.081 74.179H212.872V76.5088H212V74.179H209.802V73.3676H212V71.0488H212.872V73.3676H215.081V74.179ZM216.19 71.7231C216.244 71.3576 216.347 71.036 216.497 70.7582C216.646 70.4805 216.835 70.2484 217.061 70.062C217.288 69.872 217.547 69.7295 217.84 69.6345C218.136 69.5394 218.454 69.4919 218.793 69.4919C219.133 69.4919 219.446 69.5413 219.731 69.6399C220.016 69.735 220.259 69.872 220.46 70.0511C220.665 70.2265 220.824 70.4385 220.937 70.687C221.05 70.9355 221.107 71.2096 221.107 71.5093C221.107 71.7614 221.076 71.9844 221.014 72.1781C220.951 72.3718 220.862 72.5417 220.745 72.6879C220.632 72.8341 220.493 72.9583 220.328 73.0606C220.164 73.1593 219.979 73.2416 219.775 73.3073C220.275 73.4462 220.652 73.6728 220.904 73.9871C221.156 74.2977 221.282 74.6924 221.282 75.1712C221.282 75.5403 221.213 75.8729 221.074 76.1689C220.935 76.4613 220.745 76.7098 220.504 76.9144C220.263 77.1154 219.981 77.2708 219.66 77.3804C219.342 77.4864 219.002 77.5394 218.64 77.5394C218.227 77.5394 217.872 77.49 217.576 77.3914C217.28 77.289 217.028 77.1483 216.82 76.9693C216.612 76.7865 216.438 76.5691 216.299 76.3169C216.164 76.0611 216.049 75.7815 215.954 75.4782L216.42 75.2808C216.54 75.2297 216.657 75.215 216.771 75.237C216.884 75.2589 216.966 75.3229 217.017 75.4288C217.072 75.5385 217.134 75.6627 217.204 75.8016C217.277 75.9368 217.374 76.0666 217.494 76.1908C217.615 76.3114 217.765 76.4138 217.944 76.4978C218.126 76.5819 218.355 76.6239 218.629 76.6239C218.892 76.6239 219.122 76.5819 219.32 76.4978C219.517 76.4101 219.681 76.2986 219.813 76.1634C219.945 76.0245 220.043 75.871 220.109 75.7029C220.175 75.5348 220.208 75.3685 220.208 75.2041C220.208 74.9994 220.182 74.8112 220.131 74.6394C220.08 74.4677 219.981 74.3215 219.835 74.2009C219.692 74.0766 219.493 73.9798 219.237 73.9103C218.982 73.8409 218.649 73.8062 218.24 73.8062V73.0278C218.576 73.0241 218.859 72.9894 219.089 72.9236C219.323 72.8578 219.512 72.7665 219.654 72.6495C219.797 72.5326 219.899 72.3937 219.961 72.2329C220.027 72.0721 220.06 71.893 220.06 71.6957C220.06 71.48 220.027 71.2918 219.961 71.131C219.895 70.9702 219.802 70.8368 219.681 70.7308C219.565 70.6212 219.424 70.5408 219.259 70.4896C219.099 70.4348 218.923 70.4074 218.733 70.4074C218.543 70.4074 218.368 70.4348 218.207 70.4896C218.046 70.5444 217.904 70.6212 217.779 70.7199C217.655 70.8185 217.551 70.9355 217.467 71.0707C217.383 71.2059 217.322 71.3521 217.286 71.5093C217.235 71.6481 217.169 71.7413 217.089 71.7888C217.012 71.8364 216.9 71.8473 216.754 71.8217L216.19 71.7231ZM222.44 71.7231C222.495 71.3576 222.597 71.036 222.747 70.7582C222.897 70.4805 223.085 70.2484 223.311 70.062C223.538 69.872 223.797 69.7295 224.09 69.6345C224.386 69.5394 224.704 69.4919 225.044 69.4919C225.384 69.4919 225.696 69.5413 225.981 69.6399C226.266 69.735 226.509 69.872 226.71 70.0511C226.915 70.2265 227.074 70.4385 227.187 70.687C227.3 70.9355 227.357 71.2096 227.357 71.5093C227.357 71.7614 227.326 71.9844 227.264 72.1781C227.202 72.3718 227.112 72.5417 226.995 72.6879C226.882 72.8341 226.743 72.9583 226.579 73.0606C226.414 73.1593 226.23 73.2416 226.025 73.3073C226.526 73.4462 226.902 73.6728 227.154 73.9871C227.406 74.2977 227.532 74.6924 227.532 75.1712C227.532 75.5403 227.463 75.8729 227.324 76.1689C227.185 76.4613 226.995 76.7098 226.754 76.9144C226.513 77.1154 226.231 77.2708 225.91 77.3804C225.592 77.4864 225.252 77.5394 224.89 77.5394C224.477 77.5394 224.123 77.49 223.827 77.3914C223.531 77.289 223.278 77.1483 223.07 76.9693C222.862 76.7865 222.688 76.5691 222.549 76.3169C222.414 76.0611 222.299 75.7815 222.204 75.4782L222.67 75.2808C222.791 75.2297 222.908 75.215 223.021 75.237C223.134 75.2589 223.216 75.3229 223.268 75.4288C223.322 75.5385 223.384 75.6627 223.454 75.8016C223.527 75.9368 223.624 76.0666 223.744 76.1908C223.865 76.3114 224.015 76.4138 224.194 76.4978C224.377 76.5819 224.605 76.6239 224.879 76.6239C225.142 76.6239 225.373 76.5819 225.57 76.4978C225.767 76.4101 225.932 76.2986 226.063 76.1634C226.195 76.0245 226.294 75.871 226.359 75.7029C226.425 75.5348 226.458 75.3685 226.458 75.2041C226.458 74.9994 226.432 74.8112 226.381 74.6394C226.33 74.4677 226.231 74.3215 226.085 74.2009C225.943 74.0766 225.744 73.9798 225.488 73.9103C225.232 73.8409 224.899 73.8062 224.49 73.8062V73.0278C224.826 73.0241 225.109 72.9894 225.34 72.9236C225.574 72.8578 225.762 72.7665 225.904 72.6495C226.047 72.5326 226.149 72.3937 226.211 72.2329C226.277 72.0721 226.31 71.893 226.31 71.6957C226.31 71.48 226.277 71.2918 226.211 71.131C226.146 70.9702 226.052 70.8368 225.932 70.7308C225.815 70.6212 225.674 70.5408 225.51 70.4896C225.349 70.4348 225.173 70.4074 224.983 70.4074C224.793 70.4074 224.618 70.4348 224.457 70.4896C224.296 70.5444 224.154 70.6212 224.03 70.7199C223.905 70.8185 223.801 70.9355 223.717 71.0707C223.633 71.2059 223.573 71.3521 223.536 71.5093C223.485 71.6481 223.419 71.7413 223.339 71.7888C223.262 71.8364 223.151 71.8473 223.004 71.8217L222.44 71.7231ZM232.001 71.4819C232.001 71.7888 231.952 72.0629 231.853 72.3041C231.758 72.5453 231.63 72.75 231.469 72.9181C231.309 73.0826 231.12 73.2105 230.905 73.3019C230.693 73.3896 230.47 73.4334 230.236 73.4334C229.984 73.4334 229.75 73.3896 229.534 73.3019C229.322 73.2105 229.138 73.0826 228.981 72.9181C228.823 72.75 228.699 72.5453 228.608 72.3041C228.52 72.0629 228.476 71.7888 228.476 71.4819C228.476 71.1676 228.52 70.888 228.608 70.6431C228.699 70.3983 228.823 70.1918 228.981 70.0237C229.138 69.8519 229.322 69.7222 229.534 69.6345C229.75 69.5431 229.984 69.4974 230.236 69.4974C230.488 69.4974 230.72 69.5431 230.932 69.6345C231.148 69.7222 231.334 69.8519 231.491 70.0237C231.652 70.1918 231.776 70.3983 231.864 70.6431C231.955 70.888 232.001 71.1676 232.001 71.4819ZM231.168 71.4819C231.168 71.248 231.142 71.0506 231.091 70.8898C231.044 70.7254 230.978 70.5938 230.894 70.4951C230.81 70.3928 230.711 70.3197 230.598 70.2758C230.484 70.2283 230.364 70.2046 230.236 70.2046C230.108 70.2046 229.987 70.2283 229.874 70.2758C229.761 70.3197 229.662 70.3928 229.578 70.4951C229.498 70.5938 229.434 70.7254 229.386 70.8898C229.339 71.0506 229.315 71.248 229.315 71.4819C229.315 71.7084 229.339 71.9021 229.386 72.0629C229.434 72.2201 229.498 72.348 229.578 72.4467C229.662 72.5453 229.761 72.6166 229.874 72.6605C229.987 72.7043 230.108 72.7263 230.236 72.7263C230.364 72.7263 230.484 72.7043 230.598 72.6605C230.711 72.6166 230.81 72.5453 230.894 72.4467C230.978 72.348 231.044 72.2201 231.091 72.0629C231.142 71.9021 231.168 71.7084 231.168 71.4819ZM234.742 69.7551C234.782 69.7075 234.828 69.6673 234.879 69.6345C234.934 69.5979 235.009 69.5796 235.104 69.5796H235.877L230.099 77.2817C230.059 77.3329 230.011 77.3749 229.956 77.4078C229.901 77.437 229.836 77.4517 229.759 77.4517H228.964L234.742 69.7551ZM236.381 75.5933C236.381 75.9003 236.332 76.1744 236.233 76.4156C236.138 76.6568 236.01 76.8614 235.849 77.0296C235.689 77.194 235.5 77.3219 235.285 77.4133C235.073 77.501 234.85 77.5449 234.616 77.5449C234.364 77.5449 234.13 77.501 233.914 77.4133C233.702 77.3219 233.518 77.194 233.361 77.0296C233.203 76.8614 233.079 76.6568 232.988 76.4156C232.9 76.1744 232.856 75.9003 232.856 75.5933C232.856 75.279 232.9 74.9994 232.988 74.7546C233.079 74.5097 233.203 74.3032 233.361 74.1351C233.518 73.9633 233.702 73.8336 233.914 73.7459C234.13 73.6582 234.364 73.6143 234.616 73.6143C234.868 73.6143 235.1 73.6582 235.312 73.7459C235.528 73.8336 235.714 73.9633 235.871 74.1351C236.032 74.3032 236.156 74.5097 236.244 74.7546C236.335 74.9994 236.381 75.279 236.381 75.5933ZM235.548 75.5933C235.548 75.3594 235.522 75.162 235.471 75.0012C235.424 74.8404 235.358 74.7107 235.274 74.612C235.19 74.5097 235.091 74.4366 234.978 74.3928C234.864 74.3452 234.744 74.3215 234.616 74.3215C234.484 74.3215 234.362 74.3452 234.249 74.3928C234.139 74.4366 234.042 74.5097 233.958 74.612C233.878 74.7107 233.814 74.8404 233.766 75.0012C233.719 75.162 233.695 75.3594 233.695 75.5933C233.695 75.8235 233.719 76.0172 233.766 76.1744C233.814 76.3315 233.878 76.4594 233.958 76.5581C234.042 76.6568 234.139 76.728 234.249 76.7719C234.362 76.8158 234.484 76.8377 234.616 76.8377C234.744 76.8377 234.864 76.8158 234.978 76.7719C235.091 76.728 235.19 76.6568 235.274 76.5581C235.358 76.4594 235.424 76.3315 235.471 76.1744C235.522 76.0172 235.548 75.8235 235.548 75.5933Z" fill="white"/>
<path opacity="0.4" d="M86.1533 135.152H453.699" stroke="#506513" stroke-width="1.09638"/>
<path opacity="0.4" d="M86.1533 187.778H453.699" stroke="#506513" stroke-width="1.09638"/>
<path opacity="0.4" d="M86.1533 240.405H453.699" stroke="#506513" stroke-width="1.09638"/>
<path opacity="0.7" d="M63.1052 145.454V146.2H58.8951V145.454H60.578V140.098C60.578 139.938 60.5835 139.775 60.5945 139.61L59.1966 140.811C59.1491 140.851 59.1016 140.877 59.0541 140.888C59.0065 140.895 58.9627 140.895 58.9225 140.888C58.8823 140.88 58.8439 140.866 58.8074 140.844C58.7745 140.822 58.7489 140.798 58.7306 140.773L58.4236 140.351L60.7644 138.328H61.5593V145.454H63.1052ZM69.8049 142.275C69.8049 142.962 69.73 143.557 69.5802 144.062C69.434 144.562 69.233 144.977 68.9772 145.306C68.7213 145.635 68.418 145.88 68.0672 146.041C67.72 146.202 67.3472 146.282 66.9489 146.282C66.5469 146.282 66.1723 146.202 65.8251 146.041C65.4815 145.88 65.1819 145.635 64.926 145.306C64.6702 144.977 64.4692 144.562 64.323 144.062C64.1768 143.557 64.1037 142.962 64.1037 142.275C64.1037 141.588 64.1768 140.992 64.323 140.488C64.4692 139.983 64.6702 139.567 64.926 139.238C65.1819 138.905 65.4815 138.658 65.8251 138.498C66.1723 138.337 66.5469 138.256 66.9489 138.256C67.3472 138.256 67.72 138.337 68.0672 138.498C68.418 138.658 68.7213 138.905 68.9772 139.238C69.233 139.567 69.434 139.983 69.5802 140.488C69.73 140.992 69.8049 141.588 69.8049 142.275ZM68.7908 142.275C68.7908 141.675 68.7396 141.173 68.6373 140.767C68.5386 140.358 68.4034 140.029 68.2316 139.78C68.0635 139.532 67.868 139.355 67.6451 139.249C67.4221 139.139 67.1901 139.084 66.9489 139.084C66.7077 139.084 66.4756 139.139 66.2527 139.249C66.0297 139.355 65.8342 139.532 65.6661 139.78C65.498 140.029 65.3628 140.358 65.2604 140.767C65.1618 141.173 65.1124 141.675 65.1124 142.275C65.1124 142.874 65.1618 143.377 65.2604 143.782C65.3628 144.188 65.498 144.515 65.6661 144.763C65.8342 145.012 66.0297 145.191 66.2527 145.301C66.4756 145.407 66.7077 145.46 66.9489 145.46C67.1901 145.46 67.4221 145.407 67.6451 145.301C67.868 145.191 68.0635 145.012 68.2316 144.763C68.4034 144.515 68.5386 144.188 68.6373 143.782C68.7396 143.377 68.7908 142.874 68.7908 142.275ZM76.0552 142.275C76.0552 142.962 75.9803 143.557 75.8304 144.062C75.6842 144.562 75.4832 144.977 75.2274 145.306C74.9716 145.635 74.6683 145.88 74.3174 146.041C73.9702 146.202 73.5975 146.282 73.1991 146.282C72.7971 146.282 72.4225 146.202 72.0753 146.041C71.7318 145.88 71.4321 145.635 71.1763 145.306C70.9205 144.977 70.7194 144.562 70.5733 144.062C70.4271 143.557 70.354 142.962 70.354 142.275C70.354 141.588 70.4271 140.992 70.5733 140.488C70.7194 139.983 70.9205 139.567 71.1763 139.238C71.4321 138.905 71.7318 138.658 72.0753 138.498C72.4225 138.337 72.7971 138.256 73.1991 138.256C73.5975 138.256 73.9702 138.337 74.3174 138.498C74.6683 138.658 74.9716 138.905 75.2274 139.238C75.4832 139.567 75.6842 139.983 75.8304 140.488C75.9803 140.992 76.0552 141.588 76.0552 142.275ZM75.041 142.275C75.041 141.675 74.9899 141.173 74.8875 140.767C74.7889 140.358 74.6536 140.029 74.4819 139.78C74.3138 139.532 74.1182 139.355 73.8953 139.249C73.6724 139.139 73.4403 139.084 73.1991 139.084C72.9579 139.084 72.7258 139.139 72.5029 139.249C72.28 139.355 72.0844 139.532 71.9163 139.78C71.7482 140.029 71.613 140.358 71.5107 140.767C71.412 141.173 71.3627 141.675 71.3627 142.275C71.3627 142.874 71.412 143.377 71.5107 143.782C71.613 144.188 71.7482 144.515 71.9163 144.763C72.0844 145.012 72.28 145.191 72.5029 145.301C72.7258 145.407 72.9579 145.46 73.1991 145.46C73.4403 145.46 73.6724 145.407 73.8953 145.301C74.1182 145.191 74.3138 145.012 74.4819 144.763C74.6536 144.515 74.7889 144.188 74.8875 143.782C74.9899 143.377 75.041 142.874 75.041 142.275ZM78.0295 138.125V142.878H78.2817C78.3548 142.878 78.4151 142.869 78.4626 142.85C78.5138 142.828 78.5667 142.786 78.6216 142.724L80.3758 140.844C80.4269 140.782 80.4799 140.734 80.5348 140.701C80.5932 140.665 80.67 140.647 80.765 140.647H81.6476L79.6028 142.823C79.5042 142.947 79.3982 143.044 79.2849 143.113C79.3507 143.157 79.4091 143.208 79.4603 143.267C79.5151 143.322 79.5663 143.386 79.6138 143.459L81.7846 146.2H80.913C80.829 146.2 80.7559 146.187 80.6937 146.161C80.6353 146.132 80.5841 146.081 80.5402 146.008L78.7148 143.733C78.6599 143.656 78.6051 143.607 78.5503 143.585C78.4991 143.559 78.4187 143.546 78.3091 143.546H78.0295V146.2H77.0483V138.125H78.0295Z" fill="#141414"/>
<path opacity="0.7" d="M60.6931 194.476C60.9563 194.476 61.1938 194.434 61.4058 194.35C61.6214 194.266 61.8041 194.149 61.954 193.999C62.1075 193.849 62.2244 193.672 62.3048 193.467C62.3889 193.263 62.4309 193.04 62.4309 192.799C62.4309 192.543 62.3907 192.313 62.3103 192.108C62.2299 191.9 62.1148 191.724 61.9649 191.582C61.8188 191.435 61.6433 191.324 61.4387 191.247C61.234 191.171 61.0093 191.132 60.7644 191.132C60.5013 191.132 60.2637 191.178 60.0518 191.269C59.8398 191.357 59.6589 191.477 59.509 191.631C59.3629 191.781 59.2496 191.956 59.1692 192.157C59.0924 192.355 59.0541 192.561 59.0541 192.777C59.0541 193.029 59.0906 193.259 59.1637 193.467C59.2368 193.676 59.3428 193.855 59.4816 194.005C59.6242 194.154 59.7959 194.271 59.9969 194.355C60.2016 194.436 60.4337 194.476 60.6931 194.476ZM60.123 190.288C60.0536 190.376 59.986 190.462 59.9202 190.546C59.8581 190.626 59.7978 190.706 59.7393 190.787C59.9257 190.659 60.1303 190.56 60.3533 190.491C60.5762 190.421 60.8192 190.387 61.0824 190.387C61.4003 190.387 61.7 190.44 61.9814 190.546C62.2628 190.648 62.5077 190.8 62.716 191.001C62.9279 191.198 63.096 191.443 63.2203 191.735C63.3446 192.024 63.4067 192.355 63.4067 192.727C63.4067 193.089 63.3409 193.425 63.2093 193.736C63.0778 194.047 62.8932 194.317 62.6557 194.547C62.4218 194.778 62.1385 194.959 61.806 195.09C61.4771 195.222 61.1134 195.287 60.7151 195.287C60.3204 195.287 59.9622 195.225 59.6406 195.101C59.319 194.973 59.0449 194.794 58.8183 194.564C58.5954 194.33 58.4218 194.049 58.2975 193.72C58.1769 193.387 58.1166 193.016 58.1166 192.607C58.1166 192.263 58.1916 191.898 58.3414 191.51C58.4949 191.119 58.7379 190.703 59.0705 190.261L61.0659 187.58C61.1171 187.514 61.1865 187.459 61.2742 187.415C61.3656 187.368 61.4697 187.344 61.5867 187.344H62.4528L60.123 190.288ZM69.8049 191.275C69.8049 191.962 69.73 192.557 69.5802 193.062C69.434 193.562 69.233 193.977 68.9772 194.306C68.7213 194.635 68.418 194.88 68.0672 195.041C67.72 195.202 67.3472 195.282 66.9489 195.282C66.5469 195.282 66.1723 195.202 65.8251 195.041C65.4815 194.88 65.1819 194.635 64.926 194.306C64.6702 193.977 64.4692 193.562 64.323 193.062C64.1768 192.557 64.1037 191.962 64.1037 191.275C64.1037 190.588 64.1768 189.992 64.323 189.488C64.4692 188.983 64.6702 188.567 64.926 188.238C65.1819 187.905 65.4815 187.658 65.8251 187.498C66.1723 187.337 66.5469 187.256 66.9489 187.256C67.3472 187.256 67.72 187.337 68.0672 187.498C68.418 187.658 68.7213 187.905 68.9772 188.238C69.233 188.567 69.434 188.983 69.5802 189.488C69.73 189.992 69.8049 190.588 69.8049 191.275ZM68.7908 191.275C68.7908 190.675 68.7396 190.173 68.6373 189.767C68.5386 189.358 68.4034 189.029 68.2316 188.78C68.0635 188.532 67.868 188.355 67.6451 188.249C67.4221 188.139 67.1901 188.084 66.9489 188.084C66.7077 188.084 66.4756 188.139 66.2527 188.249C66.0297 188.355 65.8342 188.532 65.6661 188.78C65.498 189.029 65.3628 189.358 65.2604 189.767C65.1618 190.173 65.1124 190.675 65.1124 191.275C65.1124 191.874 65.1618 192.377 65.2604 192.782C65.3628 193.188 65.498 193.515 65.6661 193.763C65.8342 194.012 66.0297 194.191 66.2527 194.301C66.4756 194.407 66.7077 194.46 66.9489 194.46C67.1901 194.46 67.4221 194.407 67.6451 194.301C67.868 194.191 68.0635 194.012 68.2316 193.763C68.4034 193.515 68.5386 193.188 68.6373 192.782C68.7396 192.377 68.7908 191.874 68.7908 191.275ZM71.7793 187.125V191.878H72.0315C72.1045 191.878 72.1648 191.869 72.2124 191.85C72.2635 191.828 72.3165 191.786 72.3713 191.724L74.1255 189.844C74.1767 189.782 74.2297 189.734 74.2845 189.701C74.343 189.665 74.4197 189.647 74.5148 189.647H75.3973L73.3526 191.823C73.2539 191.947 73.1479 192.044 73.0346 192.113C73.1004 192.157 73.1589 192.208 73.2101 192.267C73.2649 192.322 73.316 192.386 73.3636 192.459L75.5344 195.2H74.6628C74.5787 195.2 74.5056 195.187 74.4435 195.161C74.385 195.132 74.3339 195.081 74.29 195.008L72.4645 192.733C72.4097 192.656 72.3549 192.607 72.3001 192.585C72.2489 192.559 72.1685 192.546 72.0589 192.546H71.7793V195.2H70.798V187.125H71.7793Z" fill="#141414"/>
<path opacity="0.7" d="M58.2372 238.471C58.2884 238.113 58.3871 237.797 58.5333 237.523C58.6795 237.245 58.864 237.013 59.0869 236.827C59.3135 236.64 59.5712 236.499 59.8599 236.404C60.1523 236.306 60.4666 236.256 60.8028 236.256C61.1354 236.256 61.4423 236.304 61.7237 236.399C62.0051 236.494 62.2464 236.629 62.4474 236.805C62.652 236.98 62.811 237.192 62.9243 237.441C63.0376 237.689 63.0942 237.965 63.0942 238.268C63.0942 238.517 63.0613 238.74 62.9955 238.937C62.9334 239.131 62.8421 239.301 62.7215 239.447C62.6045 239.593 62.462 239.717 62.2939 239.82C62.1257 239.922 61.9375 240.006 61.7292 240.072C62.2409 240.203 62.6246 240.43 62.8804 240.752C63.1399 241.07 63.2696 241.468 63.2696 241.947C63.2696 242.308 63.2002 242.634 63.0613 242.922C62.9261 243.211 62.7397 243.458 62.5022 243.662C62.2646 243.863 61.9869 244.019 61.6689 244.128C61.3546 244.234 61.0166 244.287 60.6548 244.287C60.2381 244.287 59.8818 244.236 59.5858 244.134C59.2898 244.028 59.0394 243.884 58.8348 243.701C58.6301 243.518 58.462 243.303 58.3304 243.054C58.1989 242.802 58.0874 242.53 57.996 242.237L58.4181 242.062C58.5278 242.014 58.6338 242.001 58.7361 242.023C58.8421 242.045 58.9188 242.106 58.9663 242.204C59.0139 242.307 59.0723 242.429 59.1418 242.572C59.2149 242.714 59.3135 242.851 59.4378 242.983C59.562 243.114 59.7192 243.226 59.9092 243.317C60.1029 243.408 60.3478 243.454 60.6438 243.454C60.9179 243.454 61.1573 243.41 61.3619 243.323C61.5702 243.231 61.742 243.114 61.8772 242.972C62.0161 242.829 62.1203 242.67 62.1897 242.495C62.2591 242.319 62.2939 242.146 62.2939 241.974C62.2939 241.762 62.2665 241.568 62.2116 241.393C62.1568 241.218 62.0545 241.066 61.9046 240.938C61.7548 240.81 61.5483 240.71 61.2852 240.636C61.0257 240.563 60.6913 240.527 60.282 240.527V239.82C60.6182 239.816 60.9033 239.779 61.1372 239.71C61.3747 239.641 61.5666 239.546 61.7128 239.425C61.8626 239.304 61.9704 239.16 62.0362 238.992C62.1056 238.824 62.1404 238.637 62.1404 238.433C62.1404 238.206 62.1038 238.009 62.0307 237.841C61.9613 237.673 61.8644 237.534 61.7402 237.424C61.6159 237.314 61.4679 237.232 61.2962 237.177C61.128 237.123 60.9453 237.095 60.748 237.095C60.5506 237.095 60.3661 237.124 60.1943 237.183C60.0262 237.241 59.8763 237.324 59.7448 237.43C59.6169 237.532 59.509 237.654 59.4213 237.797C59.3336 237.939 59.2715 238.097 59.235 238.268C59.1874 238.396 59.1271 238.482 59.0541 238.526C58.9846 238.566 58.8823 238.577 58.7471 238.559L58.2372 238.471ZM69.8049 240.275C69.8049 240.962 69.73 241.557 69.5802 242.062C69.434 242.562 69.233 242.977 68.9772 243.306C68.7213 243.635 68.418 243.88 68.0672 244.041C67.72 244.202 67.3472 244.282 66.9489 244.282C66.5469 244.282 66.1723 244.202 65.8251 244.041C65.4815 243.88 65.1819 243.635 64.926 243.306C64.6702 242.977 64.4692 242.562 64.323 242.062C64.1768 241.557 64.1037 240.962 64.1037 240.275C64.1037 239.588 64.1768 238.992 64.323 238.488C64.4692 237.983 64.6702 237.567 64.926 237.238C65.1819 236.905 65.4815 236.658 65.8251 236.498C66.1723 236.337 66.5469 236.256 66.9489 236.256C67.3472 236.256 67.72 236.337 68.0672 236.498C68.418 236.658 68.7213 236.905 68.9772 237.238C69.233 237.567 69.434 237.983 69.5802 238.488C69.73 238.992 69.8049 239.588 69.8049 240.275ZM68.7908 240.275C68.7908 239.675 68.7396 239.173 68.6373 238.767C68.5386 238.358 68.4034 238.029 68.2316 237.78C68.0635 237.532 67.868 237.355 67.6451 237.249C67.4221 237.139 67.1901 237.084 66.9489 237.084C66.7077 237.084 66.4756 237.139 66.2527 237.249C66.0297 237.355 65.8342 237.532 65.6661 237.78C65.498 238.029 65.3628 238.358 65.2604 238.767C65.1618 239.173 65.1124 239.675 65.1124 240.275C65.1124 240.874 65.1618 241.377 65.2604 241.782C65.3628 242.188 65.498 242.515 65.6661 242.763C65.8342 243.012 66.0297 243.191 66.2527 243.301C66.4756 243.407 66.7077 243.46 66.9489 243.46C67.1901 243.46 67.4221 243.407 67.6451 243.301C67.868 243.191 68.0635 243.012 68.2316 242.763C68.4034 242.515 68.5386 242.188 68.6373 241.782C68.7396 241.377 68.7908 240.874 68.7908 240.275ZM71.7793 236.125V240.878H72.0315C72.1045 240.878 72.1648 240.869 72.2124 240.85C72.2635 240.828 72.3165 240.786 72.3713 240.724L74.1255 238.844C74.1767 238.782 74.2297 238.734 74.2845 238.701C74.343 238.665 74.4197 238.647 74.5148 238.647H75.3973L73.3526 240.823C73.2539 240.947 73.1479 241.044 73.0346 241.113C73.1004 241.157 73.1589 241.208 73.2101 241.267C73.2649 241.322 73.316 241.386 73.3636 241.459L75.5344 244.2H74.6628C74.5787 244.2 74.5056 244.187 74.4435 244.161C74.385 244.132 74.3339 244.081 74.29 244.008L72.4645 241.733C72.4097 241.656 72.3549 241.607 72.3001 241.585C72.2489 241.559 72.1685 241.546 72.0589 241.546H71.7793V244.2H70.798V236.125H71.7793Z" fill="#141414"/>
<g filter="url(#filter1_f_38_178153)">
<path d="M88.1508 240.405H185.466L226.13 191.932H295.571L326.851 162.848L334.358 143.459L371.893 133.018L394.415 162.848L430.699 119.595" stroke="#627D12" stroke-width="2.19277" stroke-linecap="round"/>
</g>
<path d="M88.1508 240.405H185.466L226.13 191.932H295.571L326.851 162.848L334.358 143.459L371.893 133.018L394.415 162.848L430.699 119.595" stroke="#627D12" stroke-width="2.19277" stroke-linecap="round"/>
<circle opacity="0.2" cx="430.928" cy="133.118" r="6.36536" fill="#627D12"/>
<circle opacity="0.2" cx="430.928" cy="133.118" r="4.79541" fill="#627D12"/>
<circle cx="355.928" cy="133.118" r="2.94126" fill="#141414"/>
<path d="M39.8316 329.252C40.9596 329.252 41.7836 328.98 42.3036 328.436C42.8316 327.892 43.0956 327.148 43.0956 326.204C43.0956 325.772 43.0276 325.38 42.8916 325.028C42.7636 324.668 42.5636 324.364 42.2916 324.116C42.0276 323.86 41.6916 323.664 41.2836 323.528C40.8756 323.392 40.3916 323.324 39.8316 323.324H37.5516V329.252H39.8316ZM39.8316 320.588C41.0236 320.588 42.0516 320.728 42.9156 321.008C43.7876 321.288 44.5036 321.68 45.0636 322.184C45.6236 322.68 46.0356 323.272 46.2996 323.96C46.5716 324.648 46.7076 325.396 46.7076 326.204C46.7076 327.06 46.5676 327.844 46.2876 328.556C46.0076 329.268 45.5836 329.88 45.0156 330.392C44.4476 330.904 43.7316 331.304 42.8676 331.592C42.0036 331.872 40.9916 332.012 39.8316 332.012H37.5516V338H33.9516V320.588H39.8316ZM58.8991 325.628V338H56.8591C56.4351 338 56.1631 337.808 56.0431 337.424L55.8271 336.56C55.5791 336.8 55.3231 337.02 55.0591 337.22C54.7951 337.42 54.5111 337.592 54.2071 337.736C53.9111 337.88 53.5871 337.992 53.2351 338.072C52.8911 338.152 52.5151 338.192 52.1071 338.192C51.4351 338.192 50.8351 338.076 50.3071 337.844C49.7871 337.612 49.3511 337.288 48.9991 336.872C48.6471 336.456 48.3791 335.96 48.1951 335.384C48.0111 334.808 47.9191 334.176 47.9191 333.488V325.628H51.2311V333.488C51.2311 334.176 51.3871 334.712 51.6991 335.096C52.0191 335.472 52.4911 335.66 53.1151 335.66C53.5791 335.66 54.0151 335.56 54.4231 335.36C54.8311 335.152 55.2191 334.872 55.5871 334.52V325.628H58.8991ZM65.4248 338.192C64.8648 338.192 64.3688 338.112 63.9368 337.952C63.5048 337.784 63.1408 337.548 62.8448 337.244C62.5488 336.94 62.3248 336.572 62.1728 336.14C62.0208 335.708 61.9448 335.22 61.9448 334.676V328.004H60.7808C60.6048 328.004 60.4528 327.948 60.3248 327.836C60.2048 327.724 60.1448 327.556 60.1448 327.332V326.036L62.1248 325.676L62.7968 322.472C62.8848 322.112 63.1288 321.932 63.5288 321.932H65.2568V325.7H68.4488V328.004H65.2568V334.46C65.2568 334.804 65.3368 335.076 65.4968 335.276C65.6648 335.476 65.9008 335.576 66.2048 335.576C66.3648 335.576 66.5008 335.56 66.6128 335.528C66.7248 335.488 66.8208 335.448 66.9008 335.408C66.9808 335.36 67.0528 335.32 67.1168 335.288C67.1888 335.248 67.2608 335.228 67.3328 335.228C67.4288 335.228 67.5088 335.252 67.5728 335.3C67.6368 335.34 67.7008 335.412 67.7648 335.516L68.7608 337.1C68.3048 337.46 67.7888 337.732 67.2128 337.916C66.6368 338.1 66.0408 338.192 65.4248 338.192Z" fill="#141414"/>
<path d="M37.0236 365.424C37.4556 365.424 37.8343 365.368 38.1596 365.256C38.4903 365.144 38.765 364.987 38.9836 364.784C39.2076 364.576 39.3756 364.331 39.4876 364.048C39.5996 363.76 39.6556 363.443 39.6556 363.096C39.6556 362.397 39.437 361.848 38.9996 361.448C38.5676 361.048 37.909 360.848 37.0236 360.848H35.2476V365.424H37.0236ZM37.0236 359.512C37.7596 359.512 38.3996 359.597 38.9436 359.768C39.4876 359.939 39.9383 360.181 40.2956 360.496C40.653 360.805 40.917 361.181 41.0876 361.624C41.2636 362.067 41.3516 362.557 41.3516 363.096C41.3516 363.635 41.2583 364.131 41.0716 364.584C40.885 365.032 40.6103 365.419 40.2476 365.744C39.885 366.069 39.4316 366.323 38.8876 366.504C38.349 366.68 37.7276 366.768 37.0236 366.768H35.2476V371H33.5436V359.512H37.0236ZM43.9225 364.432C44.1838 363.899 44.4985 363.48 44.8665 363.176C45.2345 362.872 45.6772 362.72 46.1945 362.72C46.3705 362.72 46.5358 362.741 46.6905 362.784C46.8505 362.821 46.9892 362.88 47.1065 362.96L47.0025 364.136C46.9652 364.28 46.8772 364.352 46.7385 364.352C46.6638 364.352 46.5518 364.339 46.4025 364.312C46.2532 364.28 46.0932 364.264 45.9225 364.264C45.6718 364.264 45.4505 364.301 45.2585 364.376C45.0665 364.445 44.8932 364.552 44.7385 364.696C44.5892 364.835 44.4558 365.008 44.3385 365.216C44.2212 365.419 44.1118 365.651 44.0105 365.912V371H42.4505V362.872H43.3465C43.5172 362.872 43.6318 362.904 43.6905 362.968C43.7545 363.027 43.7998 363.133 43.8265 363.288L43.9225 364.432ZM51.157 362.744C51.7543 362.744 52.293 362.843 52.773 363.04C53.2583 363.232 53.669 363.512 54.005 363.88C54.3463 364.243 54.6077 364.683 54.789 365.2C54.9703 365.712 55.061 366.288 55.061 366.928C55.061 367.568 54.9703 368.147 54.789 368.664C54.6077 369.181 54.3463 369.621 54.005 369.984C53.669 370.347 53.2583 370.627 52.773 370.824C52.293 371.016 51.7543 371.112 51.157 371.112C50.5543 371.112 50.0103 371.016 49.525 370.824C49.045 370.627 48.6343 370.347 48.293 369.984C47.9517 369.621 47.6877 369.181 47.501 368.664C47.3197 368.147 47.229 367.568 47.229 366.928C47.229 366.288 47.3197 365.712 47.501 365.2C47.6877 364.683 47.9517 364.243 48.293 363.88C48.6343 363.512 49.045 363.232 49.525 363.04C50.0103 362.843 50.5543 362.744 51.157 362.744ZM51.157 369.896C51.925 369.896 52.4983 369.637 52.877 369.12C53.2557 368.603 53.445 367.875 53.445 366.936C53.445 365.997 53.2557 365.269 52.877 364.752C52.4983 364.229 51.925 363.968 51.157 363.968C50.3783 363.968 49.797 364.229 49.413 364.752C49.0343 365.269 48.845 365.997 48.845 366.936C48.845 367.875 49.0343 368.603 49.413 369.12C49.797 369.637 50.3783 369.896 51.157 369.896ZM56.8389 371V364.152L55.9909 364.048C55.8682 364.021 55.7669 363.979 55.6869 363.92C55.6122 363.856 55.5749 363.765 55.5749 363.648V363H56.8389V362.608C56.8389 362.112 56.9162 361.656 57.0709 361.24C57.2309 360.819 57.4682 360.456 57.7829 360.152C58.1029 359.848 58.4975 359.613 58.9669 359.448C59.4415 359.277 59.9962 359.192 60.6309 359.192C60.8335 359.192 61.0469 359.205 61.2709 359.232C61.4949 359.259 61.6842 359.299 61.8389 359.352L61.7829 360.168C61.7722 360.275 61.7055 360.331 61.5829 360.336C61.4602 360.341 61.2895 360.344 61.0709 360.344C60.5855 360.344 60.1722 360.392 59.8309 360.488C59.4895 360.584 59.2095 360.728 58.9909 360.92C58.7722 361.112 58.6122 361.355 58.5109 361.648C58.4095 361.936 58.3589 362.272 58.3589 362.656V363H63.3029V371H61.7349V364.136H58.4069V371H56.8389ZM67.7845 371.128C67.1285 371.128 66.6218 370.944 66.2645 370.576C65.9125 370.208 65.7365 369.683 65.7365 369V364.136H64.7925C64.7018 364.136 64.6245 364.109 64.5605 364.056C64.5018 363.997 64.4725 363.912 64.4725 363.8V363.168L65.7925 362.984L66.1445 360.56C66.1658 360.469 66.2058 360.4 66.2645 360.352C66.3285 360.299 66.4085 360.272 66.5045 360.272H67.2965V363H69.6005V364.136H67.2965V368.896C67.2965 369.216 67.3738 369.456 67.5285 369.616C67.6885 369.771 67.8912 369.848 68.1365 369.848C68.2805 369.848 68.4032 369.829 68.5045 369.792C68.6112 369.755 68.7018 369.715 68.7765 369.672C68.8512 369.624 68.9152 369.581 68.9685 369.544C69.0218 369.507 69.0698 369.488 69.1125 369.488C69.1658 369.488 69.2058 369.501 69.2325 369.528C69.2645 369.549 69.2965 369.587 69.3285 369.64L69.7925 370.392C69.5365 370.627 69.2325 370.808 68.8805 370.936C68.5285 371.064 68.1632 371.128 67.7845 371.128ZM75.0854 367.392C74.4507 367.413 73.912 367.464 73.4694 367.544C73.0267 367.619 72.6667 367.72 72.3894 367.848C72.112 367.976 71.912 368.128 71.7894 368.304C71.6667 368.475 71.6054 368.667 71.6054 368.88C71.6054 369.083 71.6374 369.259 71.7014 369.408C71.7707 369.552 71.8614 369.672 71.9734 369.768C72.0907 369.859 72.2267 369.925 72.3814 369.968C72.536 370.011 72.704 370.032 72.8854 370.032C73.1254 370.032 73.344 370.008 73.5414 369.96C73.744 369.912 73.9334 369.845 74.1094 369.76C74.2854 369.669 74.4534 369.56 74.6134 369.432C74.7734 369.304 74.9307 369.157 75.0854 368.992V367.392ZM70.5094 364.008C70.9627 363.576 71.4534 363.253 71.9814 363.04C72.5147 362.827 73.0987 362.72 73.7334 362.72C74.1974 362.72 74.608 362.797 74.9654 362.952C75.3227 363.101 75.624 363.312 75.8694 363.584C76.1147 363.856 76.2987 364.181 76.4214 364.56C76.5494 364.939 76.6134 365.357 76.6134 365.816V371H75.9174C75.7627 371 75.6454 370.976 75.5654 370.928C75.4854 370.875 75.4214 370.779 75.3734 370.64L75.2054 369.928C74.9974 370.12 74.792 370.291 74.5894 370.44C74.3867 370.584 74.1734 370.709 73.9494 370.816C73.7307 370.917 73.496 370.995 73.2454 371.048C72.9947 371.101 72.7174 371.128 72.4134 371.128C72.0934 371.128 71.792 371.085 71.5094 371C71.232 370.909 70.9894 370.773 70.7814 370.592C70.5734 370.411 70.408 370.184 70.2854 369.912C70.168 369.64 70.1094 369.323 70.1094 368.96C70.1094 368.64 70.1947 368.333 70.3654 368.04C70.5414 367.741 70.824 367.475 71.2134 367.24C71.608 367.005 72.12 366.813 72.7494 366.664C73.384 366.515 74.1627 366.429 75.0854 366.408V365.816C75.0854 365.203 74.9547 364.744 74.6934 364.44C74.432 364.136 74.048 363.984 73.5414 363.984C73.2 363.984 72.912 364.027 72.6774 364.112C72.448 364.197 72.248 364.293 72.0774 364.4C71.912 364.501 71.7654 364.595 71.6374 364.68C71.5147 364.765 71.3867 364.808 71.2534 364.808C71.1467 364.808 71.0534 364.779 70.9734 364.72C70.8987 364.661 70.8374 364.592 70.7894 364.512L70.5094 364.008ZM79.9418 369C80.1978 369.336 80.4751 369.571 80.7738 369.704C81.0724 369.837 81.3978 369.904 81.7498 369.904C82.4751 369.904 83.0324 369.645 83.4218 369.128C83.8164 368.611 84.0138 367.829 84.0138 366.784C84.0138 365.819 83.8404 365.112 83.4938 364.664C83.1471 364.211 82.6564 363.984 82.0218 363.984C81.5738 363.984 81.1844 364.085 80.8538 364.288C80.5284 364.491 80.2244 364.779 79.9418 365.152V369ZM79.9418 363.992C80.2778 363.619 80.6591 363.317 81.0858 363.088C81.5124 362.859 81.9978 362.744 82.5418 362.744C83.0164 362.744 83.4431 362.837 83.8218 363.024C84.2058 363.205 84.5311 363.469 84.7978 363.816C85.0644 364.157 85.2698 364.573 85.4138 365.064C85.5578 365.555 85.6298 366.109 85.6298 366.728C85.6298 367.384 85.5471 367.981 85.3818 368.52C85.2218 369.059 84.9898 369.52 84.6858 369.904C84.3871 370.288 84.0218 370.587 83.5898 370.8C83.1578 371.008 82.6724 371.112 82.1338 371.112C81.8724 371.112 81.6324 371.085 81.4138 371.032C81.1951 370.984 80.9924 370.912 80.8058 370.816C80.6244 370.72 80.4564 370.603 80.3018 370.464C80.1471 370.325 80.0004 370.168 79.8618 369.992L79.7898 370.672C79.7471 370.891 79.6138 371 79.3898 371H78.3818V359.192H79.9418V363.992ZM88.6461 359.192V371H87.0781V359.192H88.6461ZM95.9382 366.032C95.9382 365.723 95.8929 365.437 95.8022 365.176C95.7169 364.915 95.5889 364.688 95.4182 364.496C95.2476 364.304 95.0396 364.155 94.7942 364.048C94.5489 363.941 94.2662 363.888 93.9462 363.888C93.2902 363.888 92.7729 364.077 92.3942 364.456C92.0209 364.835 91.7836 365.36 91.6822 366.032H95.9382ZM97.2262 369.84C97.0342 370.064 96.8129 370.259 96.5622 370.424C96.3116 370.584 96.0449 370.715 95.7622 370.816C95.4796 370.917 95.1862 370.992 94.8822 371.04C94.5836 371.088 94.2876 371.112 93.9942 371.112C93.4342 371.112 92.9142 371.019 92.4342 370.832C91.9596 370.64 91.5462 370.363 91.1942 370C90.8476 369.632 90.5756 369.179 90.3782 368.64C90.1862 368.096 90.0902 367.472 90.0902 366.768C90.0902 366.203 90.1782 365.677 90.3542 365.192C90.5302 364.701 90.7809 364.275 91.1062 363.912C91.4369 363.549 91.8396 363.264 92.3142 363.056C92.7889 362.848 93.3222 362.744 93.9142 362.744C94.4102 362.744 94.8662 362.827 95.2822 362.992C95.7036 363.152 96.0662 363.387 96.3702 363.696C96.6742 364.005 96.9116 364.387 97.0822 364.84C97.2582 365.293 97.3462 365.811 97.3462 366.392C97.3462 366.632 97.3196 366.795 97.2662 366.88C97.2129 366.96 97.1142 367 96.9702 367H91.6422C91.6582 367.485 91.7276 367.909 91.8502 368.272C91.9729 368.629 92.1409 368.928 92.3542 369.168C92.5729 369.408 92.8316 369.587 93.1302 369.704C93.4289 369.821 93.7622 369.88 94.1302 369.88C94.4769 369.88 94.7756 369.84 95.0262 369.76C95.2822 369.68 95.5009 369.595 95.6822 369.504C95.8689 369.408 96.0236 369.32 96.1462 369.24C96.2742 369.16 96.3862 369.12 96.4822 369.12C96.6102 369.12 96.7089 369.168 96.7782 369.264L97.2262 369.84ZM104.062 362.872V371H102.502V362.872H104.062ZM104.358 360.36C104.358 360.504 104.329 360.643 104.27 360.776C104.211 360.904 104.131 361.019 104.03 361.12C103.934 361.216 103.819 361.293 103.686 361.352C103.553 361.405 103.414 361.432 103.27 361.432C103.126 361.432 102.99 361.405 102.862 361.352C102.734 361.293 102.619 361.216 102.518 361.12C102.422 361.019 102.345 360.904 102.286 360.776C102.233 360.643 102.206 360.504 102.206 360.36C102.206 360.211 102.233 360.072 102.286 359.944C102.345 359.811 102.422 359.696 102.518 359.6C102.619 359.499 102.734 359.421 102.862 359.368C102.99 359.309 103.126 359.28 103.27 359.28C103.414 359.28 103.553 359.309 103.686 359.368C103.819 359.421 103.934 359.499 104.03 359.6C104.131 359.696 104.211 359.811 104.27 359.944C104.329 360.072 104.358 360.211 104.358 360.36ZM106.537 371V364.152L105.689 364.048C105.566 364.021 105.465 363.979 105.385 363.92C105.31 363.856 105.273 363.765 105.273 363.648V363H106.537V362.264C106.537 361.8 106.603 361.387 106.737 361.024C106.87 360.661 107.059 360.355 107.305 360.104C107.555 359.848 107.854 359.656 108.201 359.528C108.553 359.395 108.947 359.328 109.385 359.328C109.753 359.328 110.091 359.381 110.401 359.488L110.369 360.272C110.363 360.341 110.342 360.395 110.305 360.432C110.267 360.464 110.217 360.488 110.153 360.504C110.094 360.52 110.019 360.531 109.929 360.536C109.843 360.536 109.75 360.536 109.649 360.536C109.409 360.536 109.19 360.565 108.993 360.624C108.795 360.683 108.627 360.781 108.489 360.92C108.35 361.059 108.243 361.243 108.169 361.472C108.094 361.696 108.057 361.976 108.057 362.312V363H110.337V364.136H108.105V371H106.537ZM117.295 371.128C116.639 371.128 116.132 370.944 115.775 370.576C115.423 370.208 115.247 369.683 115.247 369V364.136H114.303C114.212 364.136 114.135 364.109 114.071 364.056C114.012 363.997 113.983 363.912 113.983 363.8V363.168L115.303 362.984L115.655 360.56C115.676 360.469 115.716 360.4 115.775 360.352C115.839 360.299 115.919 360.272 116.015 360.272H116.807V363H119.111V364.136H116.807V368.896C116.807 369.216 116.884 369.456 117.039 369.616C117.199 369.771 117.402 369.848 117.647 369.848C117.791 369.848 117.914 369.829 118.015 369.792C118.122 369.755 118.212 369.715 118.287 369.672C118.362 369.624 118.426 369.581 118.479 369.544C118.532 369.507 118.58 369.488 118.623 369.488C118.676 369.488 118.716 369.501 118.743 369.528C118.775 369.549 118.807 369.587 118.839 369.64L119.303 370.392C119.047 370.627 118.743 370.808 118.391 370.936C118.039 371.064 117.674 371.128 117.295 371.128ZM121.788 363.904C122.129 363.557 122.505 363.277 122.916 363.064C123.332 362.851 123.809 362.744 124.348 362.744C124.796 362.744 125.188 362.819 125.524 362.968C125.865 363.117 126.151 363.328 126.38 363.6C126.609 363.867 126.783 364.189 126.9 364.568C127.017 364.947 127.076 365.365 127.076 365.824V371H125.508V365.824C125.508 365.243 125.375 364.792 125.108 364.472C124.841 364.147 124.433 363.984 123.884 363.984C123.484 363.984 123.108 364.08 122.756 364.272C122.409 364.459 122.087 364.715 121.788 365.04V371H120.228V359.192H121.788V363.904ZM134.245 366.032C134.245 365.723 134.2 365.437 134.109 365.176C134.024 364.915 133.896 364.688 133.725 364.496C133.554 364.304 133.346 364.155 133.101 364.048C132.856 363.941 132.573 363.888 132.253 363.888C131.597 363.888 131.08 364.077 130.701 364.456C130.328 364.835 130.09 365.36 129.989 366.032H134.245ZM135.533 369.84C135.341 370.064 135.12 370.259 134.869 370.424C134.618 370.584 134.352 370.715 134.069 370.816C133.786 370.917 133.493 370.992 133.189 371.04C132.89 371.088 132.594 371.112 132.301 371.112C131.741 371.112 131.221 371.019 130.741 370.832C130.266 370.64 129.853 370.363 129.501 370C129.154 369.632 128.882 369.179 128.685 368.64C128.493 368.096 128.397 367.472 128.397 366.768C128.397 366.203 128.485 365.677 128.661 365.192C128.837 364.701 129.088 364.275 129.413 363.912C129.744 363.549 130.146 363.264 130.621 363.056C131.096 362.848 131.629 362.744 132.221 362.744C132.717 362.744 133.173 362.827 133.589 362.992C134.01 363.152 134.373 363.387 134.677 363.696C134.981 364.005 135.218 364.387 135.389 364.84C135.565 365.293 135.653 365.811 135.653 366.392C135.653 366.632 135.626 366.795 135.573 366.88C135.52 366.96 135.421 367 135.277 367H129.949C129.965 367.485 130.034 367.909 130.157 368.272C130.28 368.629 130.448 368.928 130.661 369.168C130.88 369.408 131.138 369.587 131.437 369.704C131.736 369.821 132.069 369.88 132.437 369.88C132.784 369.88 133.082 369.84 133.333 369.76C133.589 369.68 133.808 369.595 133.989 369.504C134.176 369.408 134.33 369.32 134.453 369.24C134.581 369.16 134.693 369.12 134.789 369.12C134.917 369.12 135.016 369.168 135.085 369.264L135.533 369.84ZM142.297 369C142.553 369.336 142.827 369.571 143.121 369.704C143.419 369.837 143.753 369.904 144.121 369.904C144.835 369.904 145.387 369.648 145.777 369.136C146.171 368.619 146.369 367.867 146.369 366.88C146.369 366.363 146.323 365.923 146.233 365.56C146.147 365.192 146.019 364.893 145.849 364.664C145.683 364.429 145.478 364.259 145.233 364.152C144.987 364.04 144.71 363.984 144.401 363.984C143.947 363.984 143.553 364.085 143.217 364.288C142.886 364.491 142.579 364.779 142.297 365.152V369ZM142.217 364.088C142.387 363.885 142.569 363.701 142.761 363.536C142.958 363.365 143.169 363.221 143.393 363.104C143.617 362.981 143.854 362.888 144.105 362.824C144.361 362.755 144.633 362.72 144.921 362.72C145.385 362.72 145.803 362.811 146.177 362.992C146.555 363.173 146.878 363.44 147.145 363.792C147.411 364.144 147.617 364.579 147.761 365.096C147.91 365.613 147.985 366.208 147.985 366.88C147.985 367.483 147.902 368.043 147.737 368.56C147.577 369.072 147.345 369.517 147.041 369.896C146.742 370.275 146.374 370.573 145.937 370.792C145.505 371.005 145.017 371.112 144.473 371.112C143.987 371.112 143.571 371.032 143.225 370.872C142.878 370.712 142.569 370.488 142.297 370.2V373.728H140.737V362.872H141.673C141.891 362.872 142.027 362.976 142.081 363.184L142.217 364.088ZM150.889 364.432C151.15 363.899 151.465 363.48 151.833 363.176C152.201 362.872 152.643 362.72 153.161 362.72C153.337 362.72 153.502 362.741 153.657 362.784C153.817 362.821 153.955 362.88 154.073 362.96L153.969 364.136C153.931 364.28 153.843 364.352 153.705 364.352C153.63 364.352 153.518 364.339 153.369 364.312C153.219 364.28 153.059 364.264 152.889 364.264C152.638 364.264 152.417 364.301 152.225 364.376C152.033 364.445 151.859 364.552 151.705 364.696C151.555 364.835 151.422 365.008 151.305 365.216C151.187 365.419 151.078 365.651 150.977 365.912V371H149.417V362.872H150.313C150.483 362.872 150.598 362.904 150.657 362.968C150.721 363.027 150.766 363.133 150.793 363.288L150.889 364.432ZM156.588 362.872V371H155.028V362.872H156.588ZM156.884 360.36C156.884 360.504 156.855 360.643 156.796 360.776C156.737 360.904 156.657 361.019 156.556 361.12C156.46 361.216 156.345 361.293 156.212 361.352C156.079 361.405 155.94 361.432 155.796 361.432C155.652 361.432 155.516 361.405 155.388 361.352C155.26 361.293 155.145 361.216 155.044 361.12C154.948 361.019 154.871 360.904 154.812 360.776C154.759 360.643 154.732 360.504 154.732 360.36C154.732 360.211 154.759 360.072 154.812 359.944C154.871 359.811 154.948 359.696 155.044 359.6C155.145 359.499 155.26 359.421 155.388 359.368C155.516 359.309 155.652 359.28 155.796 359.28C155.94 359.28 156.079 359.309 156.212 359.368C156.345 359.421 156.46 359.499 156.556 359.6C156.657 359.696 156.737 359.811 156.796 359.944C156.855 360.072 156.884 360.211 156.884 360.36ZM164.223 364.392C164.175 364.451 164.127 364.499 164.079 364.536C164.036 364.568 163.972 364.584 163.887 364.584C163.801 364.584 163.711 364.552 163.615 364.488C163.524 364.419 163.407 364.347 163.263 364.272C163.124 364.192 162.953 364.12 162.751 364.056C162.553 363.987 162.308 363.952 162.015 363.952C161.631 363.952 161.292 364.021 160.999 364.16C160.705 364.299 160.46 364.496 160.263 364.752C160.071 365.008 159.924 365.32 159.823 365.688C159.721 366.056 159.671 366.469 159.671 366.928C159.671 367.403 159.724 367.827 159.831 368.2C159.937 368.568 160.089 368.88 160.287 369.136C160.484 369.387 160.724 369.579 161.007 369.712C161.289 369.84 161.604 369.904 161.951 369.904C162.287 369.904 162.564 369.864 162.783 369.784C163.001 369.699 163.183 369.608 163.327 369.512C163.471 369.416 163.591 369.328 163.687 369.248C163.783 369.163 163.881 369.12 163.983 369.12C164.111 369.12 164.209 369.168 164.279 369.264L164.727 369.84C164.54 370.069 164.329 370.264 164.095 370.424C163.865 370.584 163.62 370.715 163.359 370.816C163.097 370.917 162.823 370.992 162.535 371.04C162.252 371.088 161.964 371.112 161.671 371.112C161.164 371.112 160.689 371.019 160.247 370.832C159.809 370.645 159.428 370.373 159.103 370.016C158.783 369.659 158.529 369.221 158.343 368.704C158.156 368.181 158.063 367.589 158.063 366.928C158.063 366.325 158.145 365.768 158.311 365.256C158.481 364.744 158.729 364.304 159.055 363.936C159.385 363.563 159.791 363.272 160.271 363.064C160.751 362.851 161.3 362.744 161.919 362.744C162.5 362.744 163.012 362.837 163.455 363.024C163.897 363.211 164.292 363.475 164.639 363.816L164.223 364.392ZM171.106 366.032C171.106 365.723 171.061 365.437 170.97 365.176C170.885 364.915 170.757 364.688 170.586 364.496C170.416 364.304 170.208 364.155 169.962 364.048C169.717 363.941 169.434 363.888 169.114 363.888C168.458 363.888 167.941 364.077 167.562 364.456C167.189 364.835 166.952 365.36 166.85 366.032H171.106ZM172.394 369.84C172.202 370.064 171.981 370.259 171.73 370.424C171.48 370.584 171.213 370.715 170.93 370.816C170.648 370.917 170.354 370.992 170.05 371.04C169.752 371.088 169.456 371.112 169.162 371.112C168.602 371.112 168.082 371.019 167.602 370.832C167.128 370.64 166.714 370.363 166.362 370C166.016 369.632 165.744 369.179 165.546 368.64C165.354 368.096 165.258 367.472 165.258 366.768C165.258 366.203 165.346 365.677 165.522 365.192C165.698 364.701 165.949 364.275 166.274 363.912C166.605 363.549 167.008 363.264 167.482 363.056C167.957 362.848 168.49 362.744 169.082 362.744C169.578 362.744 170.034 362.827 170.45 362.992C170.872 363.152 171.234 363.387 171.538 363.696C171.842 364.005 172.08 364.387 172.25 364.84C172.426 365.293 172.514 365.811 172.514 366.392C172.514 366.632 172.488 366.795 172.434 366.88C172.381 366.96 172.282 367 172.138 367H166.81C166.826 367.485 166.896 367.909 167.018 368.272C167.141 368.629 167.309 368.928 167.522 369.168C167.741 369.408 168 369.587 168.298 369.704C168.597 369.821 168.93 369.88 169.298 369.88C169.645 369.88 169.944 369.84 170.194 369.76C170.45 369.68 170.669 369.595 170.85 369.504C171.037 369.408 171.192 369.32 171.314 369.24C171.442 369.16 171.554 369.12 171.65 369.12C171.778 369.12 171.877 369.168 171.946 369.264L172.394 369.84ZM179.07 364.432C179.331 363.899 179.646 363.48 180.014 363.176C180.382 362.872 180.825 362.72 181.342 362.72C181.518 362.72 181.683 362.741 181.838 362.784C181.998 362.821 182.137 362.88 182.254 362.96L182.15 364.136C182.113 364.28 182.025 364.352 181.886 364.352C181.811 364.352 181.699 364.339 181.55 364.312C181.401 364.28 181.241 364.264 181.07 364.264C180.819 364.264 180.598 364.301 180.406 364.376C180.214 364.445 180.041 364.552 179.886 364.696C179.737 364.835 179.603 365.008 179.486 365.216C179.369 365.419 179.259 365.651 179.158 365.912V371H177.598V362.872H178.494C178.665 362.872 178.779 362.904 178.838 362.968C178.902 363.027 178.947 363.133 178.974 363.288L179.07 364.432ZM184.769 362.872V371H183.209V362.872H184.769ZM185.065 360.36C185.065 360.504 185.036 360.643 184.977 360.776C184.919 360.904 184.839 361.019 184.737 361.12C184.641 361.216 184.527 361.293 184.393 361.352C184.26 361.405 184.121 361.432 183.977 361.432C183.833 361.432 183.697 361.405 183.569 361.352C183.441 361.293 183.327 361.216 183.225 361.12C183.129 361.019 183.052 360.904 182.993 360.776C182.94 360.643 182.913 360.504 182.913 360.36C182.913 360.211 182.94 360.072 182.993 359.944C183.052 359.811 183.129 359.696 183.225 359.6C183.327 359.499 183.441 359.421 183.569 359.368C183.697 359.309 183.833 359.28 183.977 359.28C184.121 359.28 184.26 359.309 184.393 359.368C184.527 359.421 184.641 359.499 184.737 359.6C184.839 359.696 184.919 359.811 184.977 359.944C185.036 360.072 185.065 360.211 185.065 360.36ZM191.5 364.272C191.457 364.341 191.412 364.392 191.364 364.424C191.316 364.451 191.255 364.464 191.18 364.464C191.095 364.464 190.999 364.435 190.892 364.376C190.791 364.317 190.665 364.253 190.516 364.184C190.372 364.115 190.201 364.051 190.004 363.992C189.807 363.933 189.572 363.904 189.3 363.904C189.076 363.904 188.871 363.933 188.684 363.992C188.503 364.045 188.348 364.123 188.22 364.224C188.092 364.32 187.993 364.437 187.924 364.576C187.855 364.709 187.82 364.853 187.82 365.008C187.82 365.211 187.879 365.379 187.996 365.512C188.119 365.645 188.276 365.76 188.468 365.856C188.665 365.952 188.887 366.04 189.132 366.12C189.383 366.195 189.636 366.275 189.892 366.36C190.153 366.445 190.407 366.544 190.652 366.656C190.903 366.763 191.124 366.899 191.316 367.064C191.513 367.224 191.671 367.419 191.788 367.648C191.911 367.877 191.972 368.157 191.972 368.488C191.972 368.867 191.903 369.219 191.764 369.544C191.631 369.864 191.431 370.141 191.164 370.376C190.903 370.611 190.577 370.795 190.188 370.928C189.799 371.061 189.353 371.128 188.852 371.128C188.292 371.128 187.775 371.035 187.3 370.848C186.825 370.661 186.428 370.424 186.108 370.136L186.476 369.536C186.519 369.461 186.572 369.405 186.636 369.368C186.7 369.325 186.785 369.304 186.892 369.304C186.993 369.304 187.097 369.341 187.204 369.416C187.311 369.491 187.439 369.573 187.588 369.664C187.737 369.749 187.919 369.829 188.132 369.904C188.345 369.973 188.612 370.008 188.932 370.008C189.199 370.008 189.431 369.976 189.628 369.912C189.825 369.843 189.988 369.752 190.116 369.64C190.249 369.523 190.348 369.389 190.412 369.24C190.476 369.091 190.508 368.933 190.508 368.768C190.508 368.555 190.447 368.379 190.324 368.24C190.207 368.096 190.049 367.973 189.852 367.872C189.66 367.771 189.439 367.683 189.188 367.608C188.937 367.533 188.681 367.453 188.42 367.368C188.159 367.283 187.903 367.184 187.652 367.072C187.401 366.96 187.177 366.819 186.98 366.648C186.788 366.477 186.631 366.269 186.508 366.024C186.391 365.779 186.332 365.48 186.332 365.128C186.332 364.813 186.396 364.512 186.524 364.224C186.657 363.936 186.847 363.683 187.092 363.464C187.343 363.245 187.649 363.072 188.012 362.944C188.38 362.811 188.799 362.744 189.268 362.744C189.807 362.744 190.292 362.829 190.724 363C191.161 363.171 191.535 363.405 191.844 363.704L191.5 364.272ZM198.725 366.032C198.725 365.723 198.68 365.437 198.589 365.176C198.504 364.915 198.376 364.688 198.205 364.496C198.034 364.304 197.826 364.155 197.581 364.048C197.336 363.941 197.053 363.888 196.733 363.888C196.077 363.888 195.56 364.077 195.181 364.456C194.808 364.835 194.57 365.36 194.469 366.032H198.725ZM200.013 369.84C199.821 370.064 199.6 370.259 199.349 370.424C199.098 370.584 198.832 370.715 198.549 370.816C198.266 370.917 197.973 370.992 197.669 371.04C197.37 371.088 197.074 371.112 196.781 371.112C196.221 371.112 195.701 371.019 195.221 370.832C194.746 370.64 194.333 370.363 193.981 370C193.634 369.632 193.362 369.179 193.165 368.64C192.973 368.096 192.877 367.472 192.877 366.768C192.877 366.203 192.965 365.677 193.141 365.192C193.317 364.701 193.568 364.275 193.893 363.912C194.224 363.549 194.626 363.264 195.101 363.056C195.576 362.848 196.109 362.744 196.701 362.744C197.197 362.744 197.653 362.827 198.069 362.992C198.49 363.152 198.853 363.387 199.157 363.696C199.461 364.005 199.698 364.387 199.869 364.84C200.045 365.293 200.133 365.811 200.133 366.392C200.133 366.632 200.106 366.795 200.053 366.88C200 366.96 199.901 367 199.757 367H194.429C194.445 367.485 194.514 367.909 194.637 368.272C194.76 368.629 194.928 368.928 195.141 369.168C195.36 369.408 195.618 369.587 195.917 369.704C196.216 369.821 196.549 369.88 196.917 369.88C197.264 369.88 197.562 369.84 197.813 369.76C198.069 369.68 198.288 369.595 198.469 369.504C198.656 369.408 198.81 369.32 198.933 369.24C199.061 369.16 199.173 369.12 199.269 369.12C199.397 369.12 199.496 369.168 199.565 369.264L200.013 369.84ZM206.282 364.272C206.239 364.341 206.194 364.392 206.146 364.424C206.098 364.451 206.037 364.464 205.962 364.464C205.877 364.464 205.781 364.435 205.674 364.376C205.573 364.317 205.447 364.253 205.298 364.184C205.154 364.115 204.983 364.051 204.786 363.992C204.589 363.933 204.354 363.904 204.082 363.904C203.858 363.904 203.653 363.933 203.466 363.992C203.285 364.045 203.13 364.123 203.002 364.224C202.874 364.32 202.775 364.437 202.706 364.576C202.637 364.709 202.602 364.853 202.602 365.008C202.602 365.211 202.661 365.379 202.778 365.512C202.901 365.645 203.058 365.76 203.25 365.856C203.447 365.952 203.669 366.04 203.914 366.12C204.165 366.195 204.418 366.275 204.674 366.36C204.935 366.445 205.189 366.544 205.434 366.656C205.685 366.763 205.906 366.899 206.098 367.064C206.295 367.224 206.453 367.419 206.57 367.648C206.693 367.877 206.754 368.157 206.754 368.488C206.754 368.867 206.685 369.219 206.546 369.544C206.413 369.864 206.213 370.141 205.946 370.376C205.685 370.611 205.359 370.795 204.97 370.928C204.581 371.061 204.135 371.128 203.634 371.128C203.074 371.128 202.557 371.035 202.082 370.848C201.607 370.661 201.21 370.424 200.89 370.136L201.258 369.536C201.301 369.461 201.354 369.405 201.418 369.368C201.482 369.325 201.567 369.304 201.674 369.304C201.775 369.304 201.879 369.341 201.986 369.416C202.093 369.491 202.221 369.573 202.37 369.664C202.519 369.749 202.701 369.829 202.914 369.904C203.127 369.973 203.394 370.008 203.714 370.008C203.981 370.008 204.213 369.976 204.41 369.912C204.607 369.843 204.77 369.752 204.898 369.64C205.031 369.523 205.13 369.389 205.194 369.24C205.258 369.091 205.29 368.933 205.29 368.768C205.29 368.555 205.229 368.379 205.106 368.24C204.989 368.096 204.831 367.973 204.634 367.872C204.442 367.771 204.221 367.683 203.97 367.608C203.719 367.533 203.463 367.453 203.202 367.368C202.941 367.283 202.685 367.184 202.434 367.072C202.183 366.96 201.959 366.819 201.762 366.648C201.57 366.477 201.413 366.269 201.29 366.024C201.173 365.779 201.114 365.48 201.114 365.128C201.114 364.813 201.178 364.512 201.306 364.224C201.439 363.936 201.629 363.683 201.874 363.464C202.125 363.245 202.431 363.072 202.794 362.944C203.162 362.811 203.581 362.744 204.05 362.744C204.589 362.744 205.074 362.829 205.506 363C205.943 363.171 206.317 363.405 206.626 363.704L206.282 364.272ZM216.642 364.272C216.599 364.341 216.554 364.392 216.506 364.424C216.458 364.451 216.397 364.464 216.322 364.464C216.237 364.464 216.141 364.435 216.034 364.376C215.933 364.317 215.807 364.253 215.658 364.184C215.514 364.115 215.343 364.051 215.146 363.992C214.949 363.933 214.714 363.904 214.442 363.904C214.218 363.904 214.013 363.933 213.826 363.992C213.645 364.045 213.49 364.123 213.362 364.224C213.234 364.32 213.135 364.437 213.066 364.576C212.997 364.709 212.962 364.853 212.962 365.008C212.962 365.211 213.021 365.379 213.138 365.512C213.261 365.645 213.418 365.76 213.61 365.856C213.807 365.952 214.029 366.04 214.274 366.12C214.525 366.195 214.778 366.275 215.034 366.36C215.295 366.445 215.549 366.544 215.794 366.656C216.045 366.763 216.266 366.899 216.458 367.064C216.655 367.224 216.813 367.419 216.93 367.648C217.053 367.877 217.114 368.157 217.114 368.488C217.114 368.867 217.045 369.219 216.906 369.544C216.773 369.864 216.573 370.141 216.306 370.376C216.045 370.611 215.719 370.795 215.33 370.928C214.941 371.061 214.495 371.128 213.994 371.128C213.434 371.128 212.917 371.035 212.442 370.848C211.967 370.661 211.57 370.424 211.25 370.136L211.618 369.536C211.661 369.461 211.714 369.405 211.778 369.368C211.842 369.325 211.927 369.304 212.034 369.304C212.135 369.304 212.239 369.341 212.346 369.416C212.453 369.491 212.581 369.573 212.73 369.664C212.879 369.749 213.061 369.829 213.274 369.904C213.487 369.973 213.754 370.008 214.074 370.008C214.341 370.008 214.573 369.976 214.77 369.912C214.967 369.843 215.13 369.752 215.258 369.64C215.391 369.523 215.49 369.389 215.554 369.24C215.618 369.091 215.65 368.933 215.65 368.768C215.65 368.555 215.589 368.379 215.466 368.24C215.349 368.096 215.191 367.973 214.994 367.872C214.802 367.771 214.581 367.683 214.33 367.608C214.079 367.533 213.823 367.453 213.562 367.368C213.301 367.283 213.045 367.184 212.794 367.072C212.543 366.96 212.319 366.819 212.122 366.648C211.93 366.477 211.773 366.269 211.65 366.024C211.533 365.779 211.474 365.48 211.474 365.128C211.474 364.813 211.538 364.512 211.666 364.224C211.799 363.936 211.989 363.683 212.234 363.464C212.485 363.245 212.791 363.072 213.154 362.944C213.522 362.811 213.941 362.744 214.41 362.744C214.949 362.744 215.434 362.829 215.866 363C216.303 363.171 216.677 363.405 216.986 363.704L216.642 364.272ZM220.043 363.904C220.384 363.557 220.76 363.277 221.171 363.064C221.587 362.851 222.064 362.744 222.603 362.744C223.051 362.744 223.443 362.819 223.779 362.968C224.12 363.117 224.406 363.328 224.635 363.6C224.864 363.867 225.038 364.189 225.155 364.568C225.272 364.947 225.331 365.365 225.331 365.824V371H223.763V365.824C223.763 365.243 223.63 364.792 223.363 364.472C223.096 364.147 222.688 363.984 222.139 363.984C221.739 363.984 221.363 364.08 221.011 364.272C220.664 364.459 220.342 364.715 220.043 365.04V371H218.483V359.192H220.043V363.904ZM231.484 367.392C230.849 367.413 230.311 367.464 229.868 367.544C229.425 367.619 229.065 367.72 228.788 367.848C228.511 367.976 228.311 368.128 228.188 368.304C228.065 368.475 228.004 368.667 228.004 368.88C228.004 369.083 228.036 369.259 228.1 369.408C228.169 369.552 228.26 369.672 228.372 369.768C228.489 369.859 228.625 369.925 228.78 369.968C228.935 370.011 229.103 370.032 229.284 370.032C229.524 370.032 229.743 370.008 229.94 369.96C230.143 369.912 230.332 369.845 230.508 369.76C230.684 369.669 230.852 369.56 231.012 369.432C231.172 369.304 231.329 369.157 231.484 368.992V367.392ZM226.908 364.008C227.361 363.576 227.852 363.253 228.38 363.04C228.913 362.827 229.497 362.72 230.132 362.72C230.596 362.72 231.007 362.797 231.364 362.952C231.721 363.101 232.023 363.312 232.268 363.584C232.513 363.856 232.697 364.181 232.82 364.56C232.948 364.939 233.012 365.357 233.012 365.816V371H232.316C232.161 371 232.044 370.976 231.964 370.928C231.884 370.875 231.82 370.779 231.772 370.64L231.604 369.928C231.396 370.12 231.191 370.291 230.988 370.44C230.785 370.584 230.572 370.709 230.348 370.816C230.129 370.917 229.895 370.995 229.644 371.048C229.393 371.101 229.116 371.128 228.812 371.128C228.492 371.128 228.191 371.085 227.908 371C227.631 370.909 227.388 370.773 227.18 370.592C226.972 370.411 226.807 370.184 226.684 369.912C226.567 369.64 226.508 369.323 226.508 368.96C226.508 368.64 226.593 368.333 226.764 368.04C226.94 367.741 227.223 367.475 227.612 367.24C228.007 367.005 228.519 366.813 229.148 366.664C229.783 366.515 230.561 366.429 231.484 366.408V365.816C231.484 365.203 231.353 364.744 231.092 364.44C230.831 364.136 230.447 363.984 229.94 363.984C229.599 363.984 229.311 364.027 229.076 364.112C228.847 364.197 228.647 364.293 228.476 364.4C228.311 364.501 228.164 364.595 228.036 364.68C227.913 364.765 227.785 364.808 227.652 364.808C227.545 364.808 227.452 364.779 227.372 364.72C227.297 364.661 227.236 364.592 227.188 364.512L226.908 364.008ZM236.252 364.432C236.514 363.899 236.828 363.48 237.196 363.176C237.564 362.872 238.007 362.72 238.524 362.72C238.7 362.72 238.866 362.741 239.02 362.784C239.18 362.821 239.319 362.88 239.436 362.96L239.332 364.136C239.295 364.28 239.207 364.352 239.068 364.352C238.994 364.352 238.882 364.339 238.732 364.312C238.583 364.28 238.423 364.264 238.252 364.264C238.002 364.264 237.78 364.301 237.588 364.376C237.396 364.445 237.223 364.552 237.068 364.696C236.919 364.835 236.786 365.008 236.668 365.216C236.551 365.419 236.442 365.651 236.34 365.912V371H234.78V362.872H235.676C235.847 362.872 235.962 362.904 236.02 362.968C236.084 363.027 236.13 363.133 236.156 363.288L236.252 364.432ZM241.88 369C242.136 369.336 242.411 369.571 242.704 369.704C243.003 369.837 243.336 369.904 243.704 369.904C244.419 369.904 244.971 369.648 245.36 369.136C245.755 368.619 245.952 367.867 245.952 366.88C245.952 366.363 245.907 365.923 245.816 365.56C245.731 365.192 245.603 364.893 245.432 364.664C245.267 364.429 245.061 364.259 244.816 364.152C244.571 364.04 244.293 363.984 243.984 363.984C243.531 363.984 243.136 364.085 242.8 364.288C242.469 364.491 242.163 364.779 241.88 365.152V369ZM241.8 364.088C241.971 363.885 242.152 363.701 242.344 363.536C242.541 363.365 242.752 363.221 242.976 363.104C243.2 362.981 243.437 362.888 243.688 362.824C243.944 362.755 244.216 362.72 244.504 362.72C244.968 362.72 245.387 362.811 245.76 362.992C246.139 363.173 246.461 363.44 246.728 363.792C246.995 364.144 247.2 364.579 247.344 365.096C247.493 365.613 247.568 366.208 247.568 366.88C247.568 367.483 247.485 368.043 247.32 368.56C247.16 369.072 246.928 369.517 246.624 369.896C246.325 370.275 245.957 370.573 245.52 370.792C245.088 371.005 244.6 371.112 244.056 371.112C243.571 371.112 243.155 371.032 242.808 370.872C242.461 370.712 242.152 370.488 241.88 370.2V373.728H240.32V362.872H241.256C241.475 362.872 241.611 362.976 241.664 363.184L241.8 364.088ZM250.6 359.192V371H249.032V359.192H250.6ZM259.612 362.872L255.1 373.36C255.052 373.477 254.988 373.568 254.908 373.632C254.828 373.696 254.711 373.728 254.556 373.728H253.396L254.884 370.488L251.548 362.872H252.908C253.041 362.872 253.145 362.904 253.22 362.968C253.295 363.032 253.348 363.104 253.38 363.184L255.444 368.064C255.487 368.187 255.527 368.312 255.564 368.44C255.607 368.563 255.641 368.685 255.668 368.808C255.705 368.68 255.745 368.555 255.788 368.432C255.831 368.304 255.876 368.179 255.924 368.056L257.916 363.184C257.953 363.093 258.012 363.019 258.092 362.96C258.172 362.901 258.263 362.872 258.364 362.872H259.612Z" fill="#525866"/>
<defs>
<filter id="filter1_f_38_178153" x="83.7653" y="115.209" width="351.319" height="129.581" filterUnits="userSpaceOnUse" color-interpolation-filters="sRGB">
<feFlood flood-opacity="0" result="BackgroundImageFix"/>
<feBlend mode="normal" in="SourceGraphic" in2="BackgroundImageFix" result="shape"/>
<feGaussianBlur stdDeviation="1.64457" result="effect1_foregroundBlur_38_178153"/>
</filter>
<linearGradient id="paint0_linear_38_178153" x1="246.871" y1="178.883" x2="499.549" y2="355.581" gradientUnits="userSpaceOnUse">
<stop offset="0.0832768" stop-color="#C5F53D"/>
<stop offset="1" stop-color="#EBF055"/>
</linearGradient>
<radialGradient id="paint1_radial_38_178153" cx="0" cy="0" r="1" gradientUnits="userSpaceOnUse" gradientTransform="translate(41.7623 20.2413) rotate(32.8093) scale(482.91 703.833)">
<stop stop-color="#BDF738" stop-opacity="0.4"/>
<stop offset="1" stop-color="#BDF738" stop-opacity="0"/>
</radialGradient>
<radialGradient id="paint2_radial_38_178153" cx="0" cy="0" r="1" gradientUnits="userSpaceOnUse" gradientTransform="translate(41.7623 20.2413) rotate(32.8093) scale(482.91 703.833)">
<stop stop-color="white" stop-opacity="0"/>
<stop offset="1" stop-color="white"/>
</radialGradient>
<radialGradient id="paint3_radial_38_178153" cx="0" cy="0" r="1" gradientUnits="userSpaceOnUse" gradientTransform="translate(43.7432 280.53) rotate(-32.7996) scale(480.5 699.486)">
<stop stop-color="white" stop-opacity="0"/>
<stop offset="1" stop-color="white"/>
</radialGradient>
<linearGradient id="paint4_linear_38_178153" x1="45.7242" y1="19.5545" x2="441.354" y2="291.014" gradientUnits="userSpaceOnUse">
<stop stop-color="white" stop-opacity="0.9"/>
<stop offset="1" stop-color="white" stop-opacity="0"/>
</linearGradient>
</defs>
</svg>
