<svg xmlns="http://www.w3.org/2000/svg" width="17" height="19" viewBox="0 0 17 19" fill="none">
  <path d="M15.7067 10.574C14.7301 14.4907 10.7627 16.8743 6.84503 15.8976C2.92901 14.9212 0.545076 10.954 1.52214 7.03747C2.49829 3.12031 6.46572 0.736431 10.3822 1.71293C14.2996 2.68942 16.6833 6.65707 15.7067 10.574Z" fill="#DB8013"/>
  <path d="M11.8382 7.76404C11.9838 6.79121 11.2429 6.26823 10.23 5.91935L10.5586 4.60152L9.75635 4.40161L9.43648 5.68471C9.22555 5.63216 9.00892 5.58259 8.79368 5.53346L9.11588 4.2419L8.31407 4.04199L7.98524 5.35936C7.81068 5.31961 7.6393 5.28031 7.47295 5.23896L7.47386 5.23485L6.36747 4.95862L6.15406 5.8154C6.15406 5.8154 6.7493 5.95179 6.73673 5.96025C7.06166 6.04136 7.12038 6.25634 7.11055 6.42679L6.73627 7.92808C6.75867 7.93379 6.78768 7.94202 6.81968 7.95481C6.79294 7.94819 6.76438 7.94088 6.73491 7.93379L6.21027 10.0369C6.1705 10.1356 6.06974 10.2836 5.84262 10.2275C5.85061 10.2391 5.25948 10.0819 5.25948 10.0819L4.86121 11.0001L5.90522 11.2604C6.09945 11.309 6.28978 11.36 6.47715 11.4079L6.14515 12.7408L6.94649 12.9408L7.27531 11.622C7.4942 11.6814 7.70671 11.7363 7.91464 11.7879L7.58698 13.1005L8.38922 13.3004L8.72123 11.97C10.0893 12.2288 11.118 12.1244 11.551 10.8872C11.8999 9.89115 11.5336 9.31649 10.8138 8.94179C11.3381 8.82094 11.7329 8.47621 11.8382 7.76404ZM10.0051 10.3341C9.75722 11.3303 8.07984 10.7917 7.53602 10.6567L7.97657 8.89083C8.52039 9.0266 10.2643 9.29529 10.0051 10.3341ZM10.2534 7.74965C10.0271 8.65578 8.63101 8.19539 8.17808 8.0825L8.57749 6.48094C9.03042 6.5938 10.4889 6.80446 10.2534 7.74965Z" fill="white"/>
</svg>