<svg xmlns="http://www.w3.org/2000/svg" width="30" height="31" viewBox="0 0 30 31" fill="none">
  <g clip-path="url(#clip0_22_176719)">
    <path fill-rule="evenodd" clip-rule="evenodd" d="M23.3613 13.7129V11.6093V6.69919C23.5547 6.71676 23.7539 6.71676 23.9473 6.69919V13.7129H23.3613ZM15.7969 14.7558C15.6035 14.9668 15.3516 15.125 15.0645 15.207C15.8613 16.1855 15.1758 17.8027 13.8574 17.7793H12.0762C12.1113 17.8789 12.1055 18.0078 12.1055 18.1132C13.2246 18.4355 14.0098 19.2441 14.0039 20.4804C14.0156 20.7265 13.9922 21.0136 13.8047 21.1836C13.6816 21.3066 13.5117 21.3828 13.3242 21.3828H11.7891C12.9082 21.998 14.0215 22.7949 14.0215 24.2422C14.0215 25.4961 13.2422 26.3164 12.1055 26.6445C12.1641 27.0898 11.9238 27.5527 11.4258 27.5527H9.97851C9.48633 27.5527 9.24023 27.0898 9.29883 26.6445C8.16797 26.3222 7.38281 25.5136 7.38281 24.2597C7.38867 23.9609 7.32422 23.4804 7.58203 23.2695C7.83984 22.9355 8.78906 23.1054 9.31054 23.0703C8.33203 22.4961 7.42969 21.7168 7.42969 20.457C7.42969 19.2382 8.19726 18.4472 9.29883 18.1132C9.29883 17.9961 9.29297 17.8613 9.33398 17.7558C8.00976 17.6972 5.77148 17.2578 4.42383 16.3906C0.117186 23.0351 1.59375 30.6172 10.7051 30.4648C12.8262 30.4648 14.5137 30.0898 15.8145 29.4336C21.6094 26.4043 19.1836 18.7578 15.7969 14.7558ZM11.6543 20.7968H13.3301C13.3828 20.7968 13.4238 20.7558 13.4238 20.7031C13.5117 19.584 12.8262 18.8515 11.7715 18.623C11.4609 18.5879 11.5254 18.1953 11.5254 17.9785C11.5254 17.9257 11.4844 17.8847 11.4316 17.8847H9.98437C9.93164 17.8847 9.89062 17.9257 9.89062 17.9785C9.88476 18.1953 9.95508 18.5586 9.66797 18.623C9.16406 18.7402 8.73047 18.9629 8.43164 19.3027C7.28906 20.7382 8.65429 22.1797 10.0078 22.7949C10.5586 23.0937 11.4727 23.539 11.4844 24.3183C11.4902 24.8222 11.0449 24.9394 10.6582 24.9218C10.2949 24.9394 9.82617 24.8281 9.83203 24.3359C9.82031 24.289 9.86133 23.6972 9.80273 23.6797C9.78515 23.6621 9.76172 23.6504 9.73828 23.6504H8.0625C8.00976 23.6504 7.96875 23.6914 7.96875 23.7441C7.93945 24.3242 7.99219 25.0683 8.39062 25.4492C8.68945 25.7832 9.1289 26.0058 9.63867 26.123C9.77929 26.1465 9.88476 26.2636 9.88476 26.4101V26.8672C9.88476 26.9199 9.92578 26.9609 9.97851 26.9609H11.4258C11.4785 26.9609 11.5195 26.9199 11.5195 26.8672C11.5371 26.6386 11.4258 26.1875 11.748 26.1289C13.3828 25.8769 14.0039 23.9726 12.8437 22.8359C12.4453 22.4257 11.8887 22.1035 11.3555 21.8047C10.8809 21.5468 9.97265 21.0547 9.97265 20.375C9.97851 19.7129 10.7695 19.7363 11.2207 19.8652C11.4199 19.9472 11.5547 20.1054 11.5547 20.3984C11.5781 20.4922 11.502 20.8027 11.6543 20.7968ZM10.5645 20.4043C10.582 20.5742 10.7812 20.7617 11.0156 20.9257C10.9629 20.7968 10.9805 20.5449 10.9805 20.4043C10.8809 20.3867 10.6699 20.3867 10.5645 20.4043ZM10.8984 24.3183C10.8984 24.0957 10.6816 23.8847 10.418 23.709V24.3242C10.4941 24.3476 10.916 24.3418 10.8984 24.3183ZM3.48047 16.08C3.49804 16.08 3.50976 16.0683 3.50976 16.0507V7.88864C3.50976 7.87106 3.49804 7.85934 3.48047 7.85934H0.861326C0.843748 7.85934 0.832029 7.87106 0.832029 7.88864C0.837889 7.91208 0.814451 16.0507 0.837889 16.0683C0.855467 16.1093 3.45703 16.0625 3.48047 16.08ZM13.3301 7.13278C13.4707 6.96872 16.4707 2.22848 14.1855 3.24215C11.4551 4.26754 9.96093 4.26754 7.23047 3.24215C6.9082 3.11911 6.68554 3.08395 6.53906 3.11325C5.83594 3.61129 7.72851 6.59372 8.08594 7.13278H13.3301ZM21.9668 14.2988H18.1289V16.5078H21.9668V14.2988ZM22.5527 19.2968H24.75C24.75 18.0488 24.75 15.541 24.75 14.2988H22.5527V19.2968ZM21.9668 19.2968V17.0879H18.1289C18.3984 17.8379 18.8555 18.5527 19.0898 19.2968H21.9668ZM25.3301 19.2968H29.168V17.0879H25.3301V19.2968ZM25.3301 14.2988V16.5078H29.168V14.2988H25.3301ZM20.8652 19.8828H19.2949C19.5293 20.6035 19.6992 21.3535 19.7988 22.0918H20.8652V19.8828ZM21.4453 24.8808H23.6426C23.6426 23.6328 23.6426 21.125 23.6426 19.8828C23.1328 19.8828 21.9434 19.8828 21.4453 19.8828V24.8808ZM20.8652 24.8808V22.6718H19.8633C19.9219 23.4336 19.8984 24.1718 19.7871 24.8808H20.8652ZM24.2285 24.8808H28.0664V22.6718H24.2285V24.8808ZM28.0664 19.8828C27.4629 19.8828 24.7734 19.8828 24.2285 19.8828V22.0918H28.0664V19.8828ZM22.5527 30.4648H24.75C24.75 29.2168 24.75 26.709 24.75 25.4668C24.2519 25.4668 23.0625 25.4668 22.5527 25.4668V30.4648ZM18.709 27.6757H21.9668V25.4668C21.4629 25.4668 20.1855 25.4668 19.6641 25.4668C19.4766 26.2519 19.1602 27.0019 18.709 27.6757ZM18.1289 28.4199V30.4648H21.9668V28.2558H18.2695C18.2227 28.3144 18.1758 28.3672 18.1289 28.4199ZM25.3301 30.4648H29.168V28.2558H25.3301V30.4648ZM25.3301 27.6757H29.168V25.4668C28.5 25.4668 26.0449 25.4668 25.3301 25.4668V27.6757ZM23.9414 9.23629C24.7383 9.30075 25.6055 9.07223 26.2734 8.60348C26.8242 8.20504 27.2109 7.71872 27.2168 7.09176C25.9043 6.98044 24.0234 7.77145 23.9414 9.23629ZM21.6738 1.36715C24.3633 -1.1641 28.1543 2.62692 25.623 5.31637C22.9394 7.84176 19.1484 4.05661 21.6738 1.36715ZM23.0449 3.37692C23.2031 3.53512 23.4141 3.62887 23.6543 3.62887C23.7363 3.62887 23.8066 3.66403 23.8594 3.72262C24.0176 3.88669 23.8887 4.19137 23.6543 4.17965H23.0859C22.7051 4.17965 22.7051 4.75973 23.0859 4.76559H23.3613C23.3145 5.32223 24.041 5.26364 23.9473 4.71286C24.2812 4.58981 24.5156 4.2734 24.5156 3.90426C24.5156 3.66989 24.416 3.45309 24.2637 3.29489C23.9941 2.9902 23.6953 3.12497 23.4609 2.9609C23.2852 2.8027 23.4141 2.48629 23.6543 2.49215H24.2227C24.6035 2.49215 24.6035 1.91208 24.2227 1.90622H23.9473C23.9941 1.34958 23.2676 1.40817 23.3613 1.95895C22.7812 2.14645 22.5996 2.96676 23.0449 3.37692ZM23.3613 11.6152C23.3613 11.3925 23.3086 11.1699 23.1914 10.9472C22.6465 9.9277 21.2168 9.37106 20.0859 9.47067C20.1621 10.9355 22.0488 11.7265 23.3613 11.6152ZM13.8574 17.1933C14.9766 17.1992 15.1523 15.5761 14.1855 15.2597C13.752 15.2304 13.834 14.6152 14.2617 14.6738H14.6543C15.1875 14.6738 15.6211 14.2402 15.6211 13.707C15.6211 13.1738 15.1875 12.7402 14.6543 12.7402C14.4902 12.7402 14.3613 12.6113 14.3613 12.4472C14.3672 12.1308 14.6953 12.1425 14.9238 12.1543C16.1895 12.1308 16.1953 10.25 14.9238 10.2207C14.543 10.2207 14.543 9.64059 14.9238 9.63473H15.3164C16.582 9.61129 16.582 7.73044 15.3164 7.70114C13.7168 7.70114 11.209 7.70114 9.60937 7.70114H7.92773C7.82812 7.70114 7.73437 7.6484 7.6875 7.57223C7.54687 7.38473 7.2832 6.98044 6.99609 6.48239C5.9707 7.10934 4.91015 7.90036 4.0957 8.82028V15.4414C6.89648 17.6504 10.8223 17.1347 13.8574 17.1933Z" fill="#354119"/>
  </g>
  <defs>
    <clipPath id="clip0_22_176719">
      <rect width="30" height="30" fill="white" transform="translate(0 0.5)"/>
    </clipPath>
  </defs>
</svg>