<svg xmlns="http://www.w3.org/2000/svg" width="50" height="50" viewBox="0 0 50 50" fill="none">
  <g clip-path="url(#clip0_61_108825)">
    <path d="M29.2969 14.6484H2.92969C1.31162 14.6484 0 13.3368 0 11.7188V2.92969H32.2266V11.7188C32.2266 13.3368 30.9149 14.6484 29.2969 14.6484Z" fill="#FF7733"/>
    <path d="M16.1133 14.6484H29.2969C30.9147 14.6484 32.2266 13.3366 32.2266 11.7188V2.92969H16.1133V14.6484Z" fill="#E64D2E"/>
    <path d="M20.5078 41.0156H0V11.7188H32.2266V32.2266H20.5078V41.0156Z" fill="#ECF2FF"/>
    <path d="M16.1133 41.0156H20.5078V32.2266H32.2266V11.7188H16.1133V41.0156Z" fill="#D9E5FF"/>
    <path d="M50 50H17.5781V29.2969H50V50Z" fill="#73E6AC"/>
    <path d="M33.6914 29.2969H50V50H33.6914V29.2969Z" fill="#52CCA3"/>
    <path d="M5.85938 0H8.78906V8.78906H5.85938V0Z" fill="#ECF2FF"/>
    <path d="M14.6484 0H17.5781V8.78906H14.6484V0Z" fill="#ECF2FF"/>
    <path d="M23.4375 0H26.3672V8.78906H23.4375V0Z" fill="#D9E5FF"/>
    <path d="M33.6914 43.9453C31.2682 43.9453 29.2969 41.974 29.2969 39.5508C29.2969 37.1275 31.2682 35.1562 33.6914 35.1562C36.1146 35.1562 38.0859 37.1275 38.0859 39.5508C38.0859 41.974 36.1146 43.9453 33.6914 43.9453Z" fill="#52CCA3"/>
    <path d="M22.8244 39.5493L24.8955 37.4782L26.9666 39.5493L24.8955 41.6204L22.8244 39.5493Z" fill="#52CCA3"/>
    <path d="M40.4007 39.551L42.4717 37.4799L44.5428 39.551L42.4717 41.6221L40.4007 39.551Z" fill="#48B3A1"/>
    <path d="M5.85938 17.5781H26.3672V20.5078H5.85938V17.5781Z" fill="#4D5E80"/>
    <path d="M5.85938 23.4375H26.3672V26.3672H5.85938V23.4375Z" fill="#4D5E80"/>
    <path d="M5.85938 29.2969H14.6484V32.2266H5.85938V29.2969Z" fill="#4D5E80"/>
    <path d="M38.0859 39.5508C38.0859 37.1275 36.1146 35.1562 33.6914 35.1562V43.9453C36.1146 43.9453 38.0859 41.974 38.0859 39.5508Z" fill="#48B3A1"/>
    <path d="M16.1133 0H17.5781V8.78906H16.1133V0Z" fill="#D9E5FF"/>
    <path d="M16.1133 17.5781H26.3672V20.5078H16.1133V17.5781Z" fill="#3D4566"/>
    <path d="M16.1133 23.4375H26.3672V26.3672H16.1133V23.4375Z" fill="#3D4566"/>
  </g>
  <defs>
    <clipPath id="clip0_61_108825">
      <rect width="50" height="50" fill="white"/>
    </clipPath>
  </defs>
</svg>