<svg xmlns="http://www.w3.org/2000/svg" width="51" height="50" viewBox="0 0 51 50" fill="none">
  <g clip-path="url(#clip0_61_108813)">
    <path d="M25.3334 50C32.0111 50 38.2894 47.3994 43.0111 42.6777C47.7328 37.9561 50.3334 31.6777 50.3334 25C50.3334 18.3223 47.7328 12.0439 43.0111 7.32227C38.2894 2.60059 32.0111 0 25.3334 0L14.2982 25L25.3334 50Z" fill="#0A2533"/>
    <path d="M25.3334 50C18.6556 50 12.3773 47.3994 7.65564 42.6777C2.93396 37.9561 0.333374 31.6777 0.333374 25C0.333374 18.3223 2.93396 12.0439 7.65564 7.32227C12.3773 2.60059 18.6556 0 25.3334 0V50Z" fill="#07485E"/>
    <path d="M25.3334 2.92969L18.714 24.279L25.3334 47.0703C37.5033 47.0703 47.4037 37.1699 47.4037 25C47.4037 12.8301 37.5033 2.92969 25.3334 2.92969Z" fill="#6699FF"/>
    <path d="M25.3334 2.92969V47.0703C13.1635 47.0703 3.26306 37.1699 3.26306 25C3.26306 12.8301 13.1635 2.92969 25.3334 2.92969Z" fill="#4DC3FF"/>
    <path d="M38.6283 12.0263C35.9095 9.03999 31.1615 8.80171 28.2699 11.6933C28.2699 11.6933 25.3822 14.583 25.3334 14.6357L24.2943 26.4731L25.3334 35.3378C27.7133 32.7753 27.8422 28.8681 25.725 26.1582L26.4701 25.4121C27.7465 26.4091 29.2875 26.9101 30.8295 26.9101C32.6449 26.9101 34.4603 26.2187 35.8422 24.8369L38.6283 22.0507C41.392 19.2871 41.392 14.79 38.6283 12.0263ZM36.557 19.9794L33.7699 22.7656C32.3597 24.1767 30.1791 24.3593 28.5677 23.3144L32.9818 18.9013L30.9095 16.83L26.6556 21.0839C26.0326 19.5761 26.3324 17.7744 27.5551 16.5507L30.3422 13.7646C32.1215 11.9853 34.9301 12.3525 36.557 14.0986C38.1781 15.7197 38.1781 18.3583 36.557 19.9794Z" fill="#CEE1E4"/>
    <path d="M24.4886 23.251L23.5638 24.1758C20.8275 22.4629 17.1693 22.7939 14.7923 25.1709L12.0052 27.957C9.11554 30.8467 9.35871 35.5977 12.3392 38.3154C15.0491 41.0244 19.6478 41.0313 22.3636 38.3154C22.3636 38.3154 25.2737 35.4023 25.3333 35.3379V14.6357C23.0931 17.0146 22.8138 20.5752 24.4886 23.251ZM23.0784 33.458L20.2923 36.2441C18.6878 37.8486 16.015 37.8477 14.4114 36.2441C12.6517 34.6172 12.2747 31.832 14.0775 30.0293L16.8636 27.2422C18.0032 26.1035 19.9085 25.7275 21.3968 26.3428L17.2874 30.4521L19.3587 32.5244L23.6273 28.2559C24.6722 29.8662 24.4896 32.0469 23.0784 33.458Z" fill="#E6F7FF"/>
  </g>
  <defs>
    <clipPath id="clip0_61_108813">
      <rect width="50" height="50" fill="white" transform="translate(0.333374)"/>
    </clipPath>
  </defs>
</svg>