<svg xmlns="http://www.w3.org/2000/svg" width="51" height="50" viewBox="0 0 51 50" fill="none">
  <g clip-path="url(#clip0_61_108793)">
    <path d="M19.451 39.7059V45.5883L22.3922 47.0589L25.3334 45.5883L26.804 42.6471L25.3334 39.7059L22.3922 38.2354L19.451 39.7059Z" fill="#2F3669"/>
    <path d="M31.2157 39.7059L28.2746 38.2354L25.3334 39.7059V45.5883L28.2746 47.0589L31.2157 45.5883C31.2157 44.8766 31.2157 40.4223 31.2157 39.7059Z" fill="#242E5B"/>
    <path d="M0.333374 1.4707V39.706H25.3334L26.804 20.5884L25.3334 1.4707C24.6282 1.4707 1.03857 1.4707 0.333374 1.4707Z" fill="#3E4587"/>
    <path d="M50.3334 1.4707C49.6282 1.4707 26.0386 1.4707 25.3334 1.4707V39.706H50.3334C50.3334 38.6271 50.3334 2.54835 50.3334 1.4707Z" fill="#2F3669"/>
    <path d="M3.27454 4.41187V33.8236H25.3334L26.8039 19.1177L25.3334 4.41187C23.844 4.41187 4.76414 4.41187 3.27454 4.41187Z" fill="#E9F4FF"/>
    <path d="M47.3922 4.41187C45.9029 4.41187 26.823 4.41187 25.3334 4.41187V33.8236H47.3922C47.3922 32.1912 47.3922 6.04432 47.3922 4.41187Z" fill="#CDE8FF"/>
    <path d="M16.5099 45.5881V48.5293H25.3334L26.804 47.0587L25.3334 45.5881C24.2659 45.5881 17.5845 45.5881 16.5099 45.5881Z" fill="#3E4587"/>
    <path d="M34.1569 45.5881C33.0894 45.5881 26.408 45.5881 25.3334 45.5881V48.5293H34.1569C34.1569 47.5007 34.1569 46.6168 34.1569 45.5881Z" fill="#2F3669"/>
    <path d="M15.4701 26.9013C16.1974 27.6286 16.8224 28.2536 17.5498 28.981C18.4261 28.1047 24.4102 22.1207 25.3335 21.1973L26.804 20.5881L25.3334 17.0378C24.7852 17.586 16.0182 26.353 15.4701 26.9013Z" fill="#83A8F0"/>
    <path d="M41.5098 16.7855V20.5882H44.451C44.451 19.5206 44.451 12.8393 44.451 11.7646C43.3835 11.7646 36.7021 11.7646 35.6275 11.7646V14.7058H39.4301C38.4364 15.6996 32.216 21.9199 31.2157 22.9202C30.5007 22.2052 26.0502 17.7547 25.3334 17.0379V21.1973C26.0484 21.9123 30.4989 26.3627 31.2157 27.0797C31.9104 26.3849 40.815 17.4803 41.5098 16.7855Z" fill="#578DEA"/>
    <path d="M20.9216 8.82349C19.9286 8.82349 7.20874 8.82349 6.2157 8.82349V11.7647H20.9216C20.9216 10.736 20.9216 9.85211 20.9216 8.82349Z" fill="#00F2C8"/>
    <path d="M16.5098 14.7058C13.7375 14.7058 7.8307 14.7058 6.2157 14.7058V17.647H16.5098C16.5098 16.6184 16.5098 15.7344 16.5098 14.7058Z" fill="#00F2C8"/>
    <path d="M6.2157 23.5293H13.5686C13.5686 22.5007 13.5686 21.6168 13.5686 20.5881C11.5888 20.5881 7.36903 20.5881 6.2157 20.5881V23.5293Z" fill="#00F2C8"/>
    <path d="M23.8628 8.82349V11.7647H25.3334L26.4363 10.2941L25.3334 8.82349H23.8628Z" fill="#FF526F"/>
    <path d="M26.804 8.82349H25.3334V11.7647H26.804V8.82349Z" fill="#E71352"/>
  </g>
  <defs>
    <clipPath id="clip0_61_108793">
      <rect width="50" height="50" fill="white" transform="translate(0.333374)"/>
    </clipPath>
  </defs>
</svg>