<svg xmlns="http://www.w3.org/2000/svg" width="14" height="14" viewBox="0 0 14 14" fill="none">
  <path d="M11.6328 7.17947L7.98929 10.8229C7.87521 10.937 7.72049 11.0011 7.55916 11.0011C7.39783 11.0011 7.24311 10.937 7.12903 10.8229C7.01495 10.7089 6.95086 10.5541 6.95086 10.3928C6.95086 10.2315 7.01495 10.0768 7.12903 9.96268L9.73562 7.35709H2.29688C2.13583 7.35709 1.98137 7.29311 1.86749 7.17923C1.75361 7.06535 1.68964 6.9109 1.68964 6.74985C1.68964 6.5888 1.75361 6.43434 1.86749 6.32046C1.98137 6.20658 2.13583 6.1426 2.29688 6.1426H9.73562L7.13004 3.5355C7.01596 3.42142 6.95187 3.2667 6.95187 3.10537C6.95187 2.94404 7.01596 2.78931 7.13004 2.67524C7.24412 2.56116 7.39884 2.49707 7.56017 2.49707C7.7215 2.49707 7.87622 2.56116 7.9903 2.67524L11.6338 6.3187C11.6904 6.37519 11.7353 6.44231 11.7659 6.51621C11.7965 6.5901 11.8122 6.66931 11.8121 6.7493C11.812 6.82928 11.7961 6.90846 11.7654 6.98228C11.7346 7.0561 11.6895 7.12311 11.6328 7.17947Z" fill="#181B25"/>
</svg>