<svg xmlns="http://www.w3.org/2000/svg" width="31" height="31" viewBox="0 0 31 31" fill="none">
  <g clip-path="url(#clip0_22_176725)">
    <path d="M13.317 4.06839C13.0299 0.201198 18.2565 0.160183 18.0221 4.06253C16.4928 3.66409 14.8522 3.66995 13.317 4.06839ZM27.901 26.0762H3.43225L5.89905 20.8731C5.90491 20.8555 5.91077 20.8379 5.91663 20.8203C6.6842 18.3184 7.0592 15.7285 7.03577 13.1211C7.03577 9.37112 9.43225 6.07229 13.0065 4.918C18.5553 3.0137 24.3561 7.50784 24.2975 13.3848C24.3033 15.9336 24.6725 18.459 25.4401 20.8731L27.901 26.0762ZM23.5826 19.9239L18.0631 10.3614C17.5651 9.49417 16.6686 8.97854 15.6666 8.97854C14.6647 8.97854 13.774 9.49417 13.2701 10.3614L7.75061 19.9239C7.25256 20.791 7.25256 21.8223 7.75061 22.6895C8.24866 23.5567 9.14514 24.0723 10.1471 24.0723H21.192C22.194 24.0723 23.0846 23.5567 23.5885 22.6895C24.0865 21.8223 24.0865 20.791 23.5826 19.9239ZM29.1022 26.8028H2.23108C1.39319 26.8028 0.707642 27.4883 0.707642 28.3262C0.707642 29.1641 1.39319 29.8496 2.23108 29.8496H29.1022C29.9401 29.8496 30.6256 29.1641 30.6256 28.3262C30.6256 27.4883 29.9401 26.8028 29.1022 26.8028ZM22.9498 20.293C23.7584 21.5821 22.7037 23.3985 21.1862 23.3457H10.1471C9.40881 23.3457 8.75256 22.9649 8.38342 22.3262C8.01428 21.6934 8.01428 20.9258 8.38342 20.293L13.903 10.7305C14.6178 9.3887 16.7155 9.3887 17.4303 10.7305L22.9498 20.293ZM15.6666 19.0391C14.3424 19.0742 14.3424 21.0137 15.6666 21.0489C16.9908 21.0196 16.9908 19.0801 15.6666 19.0391ZM14.6412 12.459C14.3834 12.752 14.2604 13.1446 14.3131 13.5313L14.8698 17.9727C14.9869 18.8985 16.3405 18.8926 16.4518 17.9727L17.0084 13.5371C17.2135 12.2305 15.4908 11.4629 14.6412 12.459ZM15.0338 13.3614C15.0338 13.3907 15.0338 13.4141 15.0397 13.4434L15.5963 17.8848C15.608 17.9551 15.7252 17.9551 15.7369 17.8848L16.2936 13.4434C16.3815 12.5645 15.0573 12.4824 15.0338 13.3614ZM15.3912 20.0469C15.3912 20.4043 15.9362 20.4043 15.9362 20.0469C15.9362 19.6895 15.3971 19.6895 15.3912 20.0469Z" fill="#354119"/>
  </g>
  <defs>
    <clipPath id="clip0_22_176725">
      <rect width="30" height="30" fill="white" transform="translate(0.666626 0.5)"/>
    </clipPath>
  </defs>
</svg>