<svg xmlns="http://www.w3.org/2000/svg" width="51" height="50" viewBox="0 0 51 50" fill="none">
  <g clip-path="url(#clip0_61_108697)">
    <path d="M3.59631 4.49219H47.7369V42.5781H3.59631V4.49219Z" fill="#2D5177"/>
    <path d="M25.6666 4.49219H47.7369V42.5781H25.6666V4.49219Z" fill="#32405D"/>
    <path d="M6.526 7.42188H44.8073V36.7188H6.526V7.42188Z" fill="#EDF9FF"/>
    <path d="M25.6666 7.42188H44.8073V36.7188H25.6666V7.42188Z" fill="#C0E1F0"/>
    <path d="M18.3424 16.2109H21.2721V20.6055H18.3424V16.2109Z" fill="#2D5177"/>
    <path d="M19.8073 16.2109H21.2721V20.6055H19.8073V16.2109Z" fill="#32405D"/>
    <path d="M18.3424 29.3945H21.2721V33.7891H18.3424V29.3945Z" fill="#2D5177"/>
    <path d="M19.8073 29.3945H21.2721V33.7891H19.8073V29.3945Z" fill="#32405D"/>
    <path d="M15.4127 19.1406V30.8594H24.2018V19.1406H15.4127Z" fill="#97DE3D"/>
    <path d="M19.8073 19.1406H24.2018V30.8594H19.8073V19.1406Z" fill="#59C36A"/>
    <path d="M30.0612 10.3516H32.9908V14.7461H30.0612V10.3516Z" fill="#2D5177"/>
    <path d="M31.526 10.3516H32.9908V14.7461H31.526V10.3516Z" fill="#32405D"/>
    <path d="M30.0612 29.3945H32.9908V33.7891H30.0612V29.3945Z" fill="#2D5177"/>
    <path d="M31.526 29.3945H32.9908V33.7891H31.526V29.3945Z" fill="#32405D"/>
    <path d="M27.1315 13.2812V30.8594H35.9205V13.2812H27.1315Z" fill="#FF641A"/>
    <path d="M31.526 13.2812H35.9205V30.8594H31.526V13.2812Z" fill="#F03800"/>
    <path d="M50.6666 39.6484V41.1133C50.6666 43.5448 48.7038 45.5078 46.2721 45.5078H5.06116C2.62942 45.5078 0.666626 43.5448 0.666626 41.1133V39.6484H50.6666Z" fill="#EDF9FF"/>
    <path d="M50.6666 39.6484V41.1133C50.6666 43.5448 48.7038 45.5078 46.2721 45.5078H25.6666V39.6484H50.6666Z" fill="#C0E1F0"/>
  </g>
  <defs>
    <clipPath id="clip0_61_108697">
      <rect width="50" height="50" fill="white" transform="translate(0.666626)"/>
    </clipPath>
  </defs>
</svg>