<svg xmlns="http://www.w3.org/2000/svg" width="51" height="50" viewBox="0 0 51 50" fill="none">
  <g clip-path="url(#clip0_61_108764)">
    <path d="M24.0692 6.27271H27.1322V10.3961H24.0692V6.27271Z" fill="#BEE4EB"/>
    <path d="M25.6006 6.27271H27.1321V10.3961H25.6006V6.27271Z" fill="#A5C8CD"/>
    <path d="M11.9208 11.8069L14.2671 9.8374L16.9184 12.9959L14.5722 14.9654L11.9208 11.8069Z" fill="#BEE4EB"/>
    <path d="M6.177 23.8669L6.70997 20.8498L10.7715 21.5673L10.2385 24.5844L6.177 23.8669Z" fill="#BEE4EB"/>
    <path d="M7.98212 34.135L11.5529 32.0733L13.0844 34.7259L9.51359 36.7875L7.98212 34.135Z" fill="#BEE4EB"/>
    <path d="M17.5179 43.4866L18.9281 39.6106L21.8073 40.6582L20.3971 44.5341L17.5179 43.4866Z" fill="#BEE4EB"/>
    <path d="M29.4149 40.6807L32.2941 39.6331L33.7043 43.5091L30.8251 44.5566L29.4149 40.6807Z" fill="#A5C8CD"/>
    <path d="M38.1155 34.7271L39.647 32.0745L43.2178 34.1362L41.6863 36.7887L38.1155 34.7271Z" fill="#A5C8CD"/>
    <path d="M40.453 21.5515L44.5145 20.8341L45.0475 23.8512L40.986 24.5686L40.453 21.5515Z" fill="#A5C8CD"/>
    <path d="M34.2925 13.0039L36.9438 9.84542L39.29 11.8149L36.6387 14.9734L34.2925 13.0039Z" fill="#A5C8CD"/>
    <path d="M25.6007 0.317139C23.8092 0.317139 22.3516 1.77458 22.3516 3.5662C22.3516 5.35781 23.8092 6.81526 25.6007 6.81526C27.3922 6.81526 28.8497 5.35771 28.8497 3.5662C28.8497 1.77468 27.3922 0.317139 25.6007 0.317139Z" fill="#B3F2D7"/>
    <path d="M9.33422 6.29565C7.96186 7.44719 7.78221 9.5006 8.93375 10.873C10.0853 12.2453 12.1388 12.4251 13.5112 11.2734C14.8835 10.1218 15.0632 8.06839 13.9116 6.69602C12.7601 5.32366 10.7066 5.14401 9.33422 6.29565Z" fill="#FFA8AD"/>
    <path d="M0.716312 21.3314C0.405224 23.0957 1.58747 24.7842 3.3518 25.0953C5.11613 25.4064 6.80467 24.2241 7.11576 22.4598C7.42684 20.6955 6.24449 19.007 4.48026 18.6959C2.71584 18.3848 1.0274 19.5671 0.716312 21.3314Z" fill="#E991F5"/>
    <path d="M3.77943 38.3891C4.67524 39.9406 6.66616 40.474 8.21768 39.5783C9.76921 38.6826 10.3027 36.6915 9.40697 35.14C8.51117 33.5885 6.52015 33.055 4.96862 33.9508C3.4171 34.8466 2.88372 36.8375 3.77943 38.3891Z" fill="#4AB8F7"/>
    <path d="M17.0903 49.487C18.7738 50.0998 20.642 49.2286 21.2546 47.5452C21.8673 45.8617 20.9963 43.9935 19.3128 43.3807C17.6294 42.7679 15.7612 43.6391 15.1485 45.3226C14.5357 47.0062 15.4069 48.8743 17.0903 49.487Z" fill="#82E1E1"/>
    <path d="M34.4206 49.4322C36.1041 48.8195 36.9752 46.9514 36.3626 45.2679C35.7499 43.5845 33.8817 42.7133 32.1982 43.326C30.5148 43.9388 29.6436 45.8069 30.2564 47.4904C30.8691 49.1739 32.7372 50.0449 34.4206 49.4322Z" fill="#F25A6B"/>
    <path d="M47.6614 38.2509C48.5572 36.6993 48.0237 34.7083 46.4722 33.8126C44.9207 32.9168 42.9296 33.4503 42.0338 35.0018C41.138 36.5533 41.6716 38.5443 43.2231 39.4402C44.7747 40.3359 46.7657 39.8024 47.6614 38.2509Z" fill="#4A98F7"/>
    <path d="M50.617 21.1742C50.3059 19.4099 48.6174 18.2276 46.8531 18.5387C45.0888 18.8498 43.9064 20.5383 44.2176 22.3026C44.5288 24.0668 46.2172 25.2491 47.9816 24.938C49.7458 24.6271 50.9281 22.9385 50.617 21.1742Z" fill="#25BBCC"/>
    <path d="M41.9045 6.19306C40.5322 5.04152 38.4788 5.22107 37.3272 6.59353C36.1757 7.9659 36.3552 10.0194 37.7277 11.171C39.1002 12.3225 41.1535 12.1428 42.3051 10.7705C43.4567 9.39811 43.2769 7.3447 41.9045 6.19306Z" fill="#A934C4"/>
    <path d="M25.6006 41.7905C34.4693 41.7905 41.6589 34.601 41.6589 25.7323C41.6589 16.8636 34.4693 9.67407 25.6006 9.67407C16.7319 9.67407 9.54242 16.8636 9.54242 25.7323C9.54242 34.601 16.7319 41.7905 25.6006 41.7905Z" fill="#80DBFF"/>
    <path d="M25.6006 9.67407V41.7905C34.4551 41.7905 41.6589 34.5868 41.6589 25.7323C41.6589 16.8777 34.4551 9.67407 25.6006 9.67407Z" fill="#4AB8F7"/>
    <path d="M25.6007 34.932C30.6815 34.932 34.8003 30.8131 34.8003 25.7323C34.8003 20.6515 30.6815 16.5327 25.6007 16.5327C20.5199 16.5327 16.4011 20.6515 16.4011 25.7323C16.4011 30.8131 20.5199 34.932 25.6007 34.932Z" fill="#B5EFFF"/>
    <path d="M25.6006 16.5327V34.9319C30.6733 34.9319 34.8002 30.805 34.8002 25.7322C34.8003 20.6596 30.6733 16.5327 25.6006 16.5327Z" fill="#80DBFF"/>
    <path d="M24.0692 24.2517H27.1322V27.2126H24.0692V24.2517Z" fill="#80DBFF"/>
    <path d="M25.6006 24.2517H27.1321V27.2126H25.6006V24.2517Z" fill="#4AB8F7"/>
    <path d="M25.6006 0.317139V6.81526C27.3922 6.81526 28.8497 5.35771 28.8497 3.5662C28.8497 1.77458 27.3922 0.317139 25.6006 0.317139Z" fill="#82D9B6"/>
  </g>
  <defs>
    <clipPath id="clip0_61_108764">
      <rect width="50" height="50" fill="white" transform="translate(0.666626)"/>
    </clipPath>
  </defs>
</svg>