<svg xmlns="http://www.w3.org/2000/svg" width="31" height="31" viewBox="0 0 31 31" fill="none">
  <g clip-path="url(#clip0_22_176728)">
    <path d="M25.7806 23.3164L24.972 20.9141C25.2592 20.8379 25.5404 20.7383 25.8099 20.6328L26.6185 23.041C26.4486 23.0938 25.9447 23.2637 25.7806 23.3164ZM29.4017 29.0996L27.6205 23.8027C27.5677 23.627 27.351 23.5273 27.181 23.5977L26.39 23.8613L25.6576 24.1074C25.4818 24.166 25.3822 24.3594 25.4467 24.5352L27.222 29.832C27.2806 30.0078 27.474 30.1074 27.6498 30.043L29.1849 29.5273C29.3607 29.4688 29.4603 29.2754 29.4017 29.0996ZM22.1713 11.1934C18.9838 12.2422 18.6732 16.748 21.6908 18.2188C24.6849 19.7363 28.0892 16.7656 26.9994 13.5898C26.3373 11.5801 24.1107 10.5254 22.1713 11.1934ZM19.0775 18.3711C17.267 16.2793 17.4135 12.8984 19.347 10.9355C22.1888 7.90039 27.4095 9.06055 28.6927 13.0215C30.5502 18.9336 23.1146 23.0645 19.0775 18.3711ZM27.6732 13.3672C25.5228 7.75977 17.431 10.4727 19.1068 16.2441C19.8275 18.5645 22.5463 19.9121 24.8256 19.0859C27.1869 18.3008 28.4642 15.7285 27.6732 13.3672ZM20.3138 28.5605C20.3138 28.9062 20.0326 29.1934 19.681 29.1934H3.18689C2.84119 29.1934 2.55994 28.9121 2.55994 28.5605V4.37891C2.55994 4.0332 2.84119 3.75195 3.18689 3.75195H19.681C20.0267 3.75195 20.3138 4.0332 20.3138 4.37891V9.30664C20.724 9.07812 21.1693 8.88476 21.6205 8.75586V3.93945C21.6205 3.11328 20.9525 2.44531 20.1263 2.44531H15.6146C15.4213 2.44531 15.2631 2.28711 15.2631 2.09375V1.10937C15.2631 0.775391 14.9877 0.505859 14.6537 0.505859H8.21423C7.88025 0.505859 7.61072 0.78125 7.61072 1.10937V2.08789C7.61072 2.28125 7.45251 2.43945 7.25916 2.43945H2.74744C1.92126 2.43945 1.2533 3.10742 1.2533 3.93359V29C1.2533 29.8203 1.92126 30.4941 2.74744 30.4941H20.1322C20.9584 30.4941 21.6263 29.8262 21.6263 29V20.8555C21.1693 20.7148 20.7357 20.5391 20.3197 20.3047V28.5605H20.3138ZM10.4584 12.3477V8.43945C6.13416 8.89648 5.58337 14.8906 9.75525 16.127C12.0697 16.8125 14.5482 15.0781 14.724 12.6992H10.8158C10.6166 12.6992 10.4584 12.541 10.4584 12.3477ZM12.4154 7.19141V10.7422H15.972C15.8021 8.86133 14.2963 7.35547 12.4154 7.19141ZM17.2435 13.4434C16.681 15.8047 17.6537 18.4121 19.6049 19.8535V28.4844H3.26892V4.46094H19.6049V9.75781C18.4447 10.6367 17.5951 11.9258 17.2611 13.3437C17.2552 13.3789 17.2494 13.4141 17.2435 13.4434ZM15.4447 12.3477C15.4447 12.1543 15.2865 11.9961 15.0931 11.9961H11.1674V8.07031C11.1322 7.43164 9.97791 7.8125 9.58533 7.87695C4.42322 9.42383 5.42517 16.8594 10.8158 16.9824C13.3646 16.9824 15.4447 14.9023 15.4447 12.3477ZM16.6986 11.0996C16.6986 8.54492 14.6185 6.46484 12.0638 6.46484C11.8705 6.46484 11.7123 6.62305 11.7123 6.81641V11.0938C11.7123 11.293 11.8705 11.4453 12.0638 11.4453H16.347C16.5345 11.4512 16.6986 11.293 16.6986 11.0996Z" fill="#354119"/>
  </g>
  <defs>
    <clipPath id="clip0_22_176728">
      <rect width="30" height="30" fill="white" transform="translate(0.333374 0.5)"/>
    </clipPath>
  </defs>
</svg>