<svg xmlns="http://www.w3.org/2000/svg" width="25" height="25" viewBox="0 0 25 25" fill="none">
  <path d="M11.5872 1.47181C11.9699 0.814803 12.919 0.814803 13.3017 1.47181L16.7144 7.33113C16.8546 7.57181 17.0895 7.74247 17.3617 7.80142L23.9889 9.23651C24.732 9.39742 25.0253 10.3001 24.5187 10.8671L20.0007 15.9234C19.8151 16.1311 19.7254 16.4073 19.7535 16.6844L20.4365 23.4306C20.5131 24.1871 19.7452 24.745 19.0495 24.4384L12.8445 21.7041C12.5896 21.5918 12.2993 21.5918 12.0444 21.7041L5.83939 24.4384C5.14362 24.745 4.37573 24.1871 4.45232 23.4306L5.13538 16.6844C5.16343 16.4073 5.07371 16.1311 4.88813 15.9234L0.370185 10.8671C-0.136416 10.3001 0.156889 9.39742 0.899997 9.23651L7.52714 7.80142C7.79935 7.74247 8.03425 7.57181 8.17443 7.33114L11.5872 1.47181Z" fill="#627D12"/>
</svg>