<svg xmlns="http://www.w3.org/2000/svg" width="50" height="50" viewBox="0 0 50 50" fill="none">
  <g clip-path="url(#clip0_61_108727)">
    <path d="M25 8.82353L27.2048 4.21569L25 0C11.2672 0 0 11.0989 0 25L13.2353 26.4706L25 25L27.2048 21.1437L25 16.1765L26.4706 12.5L25 8.82353Z" fill="#A1E2F8"/>
    <path d="M25 33.8234L27.2048 29.4117L25 24.9999C23.9325 24.9999 17.251 24.9999 16.1765 24.9999C16.1765 24.9752 16.1765 24.2175 16.1765 24.2646C16.1765 22.2342 14.5305 20.5881 12.5 20.5881C10.4696 20.5881 8.82353 22.2341 8.82353 24.2646C8.82353 24.2893 8.82353 25.047 8.82353 24.9999C7.75598 24.9999 1.07451 24.9999 0 24.9999C0 38.8162 11.1812 49.9999 25 49.9999L26.4706 45.5881L25 41.1764L23.7255 37.794L25 33.8234Z" fill="#80D385"/>
    <path d="M50 24.9999L36.7647 23.5293L25 24.9999V33.8234L23.366 37.4999L25 41.1764V49.9999C38.7326 49.9999 50 38.9009 50 24.9999Z" fill="#ECBD2C"/>
    <path d="M33.8235 25.7353C33.8235 27.7657 35.4695 29.4118 37.5 29.4118C39.5304 29.4118 41.1765 27.7658 41.1765 25.7353C41.1765 25.7106 41.1765 24.9529 41.1765 25H50C50 11.0699 38.7061 0 25 0V8.82353L26.4706 13.2353L25 16.1765V25H33.8235C33.8235 25.0247 33.8235 25.7824 33.8235 25.7353Z" fill="#FF405C"/>
    <path d="M25.7353 16.1764C27.7657 16.1764 29.4118 14.5304 29.4118 12.5C29.4118 10.4696 27.7658 8.82349 25.7353 8.82349C25.7106 8.82349 24.9528 8.82349 25 8.82349V16.1764C25.0246 16.1764 25.7825 16.1764 25.7353 16.1764Z" fill="#7EBEE3"/>
    <path d="M24.2647 33.8235C22.2343 33.8235 20.5882 35.4695 20.5882 37.5C20.5882 39.5303 22.2342 41.1764 24.2647 41.1764C24.2893 41.1764 25.0472 41.1764 25 41.1764C25 39.1966 25 34.9768 25 33.8235C24.9753 33.8235 24.2176 33.8235 24.2647 33.8235Z" fill="#F4D844"/>
  </g>
  <defs>
    <clipPath id="clip0_61_108727">
      <rect width="50" height="50" fill="white"/>
    </clipPath>
  </defs>
</svg>