<svg xmlns="http://www.w3.org/2000/svg" width="24" height="24" viewBox="0 0 24 24" fill="none">
  <g clip-path="url(#clip0_1_11241)">
    <path d="M12 24C18.6274 24 24 18.6274 24 12C24 5.37258 18.6274 0 12 0C5.37258 0 0 5.37258 0 12C0 18.6274 5.37258 24 12 24Z" fill="#525866"/>
    <path d="M5.49102 11.7402L17.061 7.27921C17.598 7.08521 18.067 7.41021 17.893 8.22221L17.894 8.22121L15.924 17.5022C15.778 18.1602 15.387 18.3202 14.84 18.0102L11.84 15.7992L10.393 17.1932C10.233 17.3532 10.098 17.4882 9.78802 17.4882L10.001 14.4352L15.561 9.41221C15.803 9.19921 15.507 9.07921 15.188 9.29121L8.31702 13.6172L5.35502 12.6932C4.71202 12.4892 4.69802 12.0502 5.49102 11.7402Z" fill="white"/>
  </g>
  <defs>
    <clipPath id="clip0_1_11241">
      <rect width="24" height="24" fill="white"/>
    </clipPath>
  </defs>
</svg>