<svg xmlns="http://www.w3.org/2000/svg" width="20" height="20" viewBox="0 0 20 20" fill="none">
  <g clip-path="url(#clip0_1_10516)">
    <path d="M10 20C15.5228 20 20 15.5228 20 10C20 4.47715 15.5228 0 10 0C4.47715 0 0 4.47715 0 10C0 15.5228 4.47715 20 10 20Z" fill="#039BE5"/>
    <path d="M4.57581 9.78334L14.2175 6.06584C14.665 5.90417 15.0558 6.17501 14.9108 6.85167L14.9116 6.85084L13.27 14.585C13.1483 15.1333 12.8225 15.2667 12.3666 15.0083L9.86664 13.1658L8.66081 14.3275C8.52747 14.4608 8.41497 14.5733 8.15664 14.5733L8.33414 12.0292L12.9675 7.84334C13.1691 7.66584 12.9225 7.56584 12.6566 7.74251L6.93081 11.3475L4.46247 10.5775C3.92664 10.4075 3.91497 10.0417 4.57581 9.78334Z" fill="white"/>
  </g>
  <defs>
    <clipPath id="clip0_1_10516">
      <rect width="20" height="20" fill="white"/>
    </clipPath>
  </defs>
</svg>