<svg xmlns="http://www.w3.org/2000/svg" width="30" height="30" viewBox="0 0 30 30" fill="none">
  <g clip-path="url(#clip0_1_10519)">
    <path d="M15 0C6.71601 0 0 6.71601 0 15C0 23.284 6.71601 30 15 30C23.284 30 30 23.284 30 15C30 6.71601 23.284 0 15 0Z" fill="black"/>
    <path d="M16.641 13.6425L23.0623 6.17828H21.5406L15.965 12.6594L11.5118 6.17828H6.37549L13.1096 15.9789L6.37549 23.8063H7.89722L13.7852 16.962L18.4882 23.8063H23.6245L16.6406 13.6425H16.641ZM8.44551 7.32383H10.7828L21.5413 22.7129H19.204L8.44551 7.32383Z" fill="white"/>
  </g>
  <defs>
    <clipPath id="clip0_1_10519">
      <rect width="30" height="30" fill="white"/>
    </clipPath>
  </defs>
</svg>