<svg xmlns="http://www.w3.org/2000/svg" width="24" height="24" viewBox="0 0 24 24" fill="none">
  <g clip-path="url(#clip0_1_11244)">
    <path d="M12 0C5.37281 0 0 5.37281 0 12C0 18.6272 5.37281 24 12 24C18.6272 24 24 18.6272 24 12C24 5.37281 18.6272 0 12 0Z" fill="#525866"/>
    <path d="M13.3128 10.9138L18.4498 4.94238H17.2325L12.772 10.1273L9.20943 4.94238H5.1004L10.4877 12.7829L5.1004 19.0448H6.31779L11.0282 13.5694L14.7906 19.0448H18.8996L13.3125 10.9138H13.3128ZM6.75642 5.85882H8.62625L17.2331 18.17H15.3632L6.75642 5.85882Z" fill="white"/>
  </g>
  <defs>
    <clipPath id="clip0_1_11244">
      <rect width="24" height="24" fill="white"/>
    </clipPath>
  </defs>
</svg>